<svg width="300" height="300" viewBox="0 0 300 300" fill="none" xmlns="http://www.w3.org/2000/svg">
<path d="M108.227 130.421C107.765 122.045 107.506 113.639 106.756 105.263C105.689 93.3914 103.757 81.6642 99.8635 70.3126C98.2196 65.5178 96.2297 60.8673 93.0286 56.8524C92.5383 56.2169 91.9615 55.6392 91.3848 55.0904C89.5102 53.2129 87.3184 52.5486 84.6652 53.0396C81.7813 53.5884 78.8397 53.9928 75.8981 54.2239C70.7648 54.6572 66.1217 52.9241 61.767 50.3822C59.1426 48.8514 56.6047 47.1472 54.0381 45.5296C50.5485 43.3055 46.8571 41.6013 42.7043 41.3414C40.3972 41.1969 38.0323 41.7746 35.6964 41.9768C34.514 42.0924 33.3316 42.2368 32.1492 42.1501C30.8226 42.0635 29.7843 41.3703 29.3518 39.9838C28.9192 38.5685 29.3518 37.3264 30.4476 36.4888C32.7259 34.6979 35.0331 32.9071 37.5132 31.4051C43.0215 28.1411 48.847 25.5993 54.8167 23.4329C56.5182 22.7975 58.1044 22.9419 59.8924 23.3752C63.7857 24.2995 67.7655 25.1371 71.7453 25.3971C77.542 25.8015 83.3675 25.7437 89.1641 25.7437C92.5095 25.7437 95.8548 25.4837 99.2002 25.166C100.902 25.0216 102.113 25.5126 103.209 26.7835C107.765 32.1561 113.101 36.6332 119.359 39.926C122.819 41.7458 126.338 43.3344 130.346 43.5366C131.529 43.5944 132.481 44.2587 132.942 45.4141C135.884 53.0107 141.565 58.4122 147.535 63.5247C153.995 69.0417 161.031 73.721 168.818 77.1582C171.356 78.2847 171.702 80.4222 172.106 82.6752C172.826 86.6613 173.461 90.6762 174.268 94.6623C175.134 98.995 176.028 103.328 177.095 107.631C178.075 111.618 179.171 115.604 180.411 119.532C182.343 125.771 184.333 131.981 186.496 138.134C188.515 143.882 190.707 149.543 192.985 155.204C194.658 159.335 196.446 163.436 198.378 167.451C200.656 172.131 203.252 176.666 205.53 181.374C206.28 182.905 206.77 184.782 206.684 186.486C206.453 192.928 209.25 197.809 214.095 201.651C219.373 205.868 225.544 208.034 232.091 209.161C248.558 211.963 264.275 209.247 279.358 202.286C281.233 201.42 283.021 200.409 284.809 199.427C287.404 198.04 289.769 199.253 289.971 202.2C290.058 203.47 289.856 204.799 289.539 206.012C287.26 214.649 282.531 221.928 276.705 228.571C269.092 237.237 260.036 244.14 250.173 250.004C230.188 261.875 208.558 269.212 185.746 273.227C172.884 275.509 159.907 276.404 146.871 275.826C132.538 275.191 118.551 272.736 105.372 266.699C104.103 266.121 102.776 265.63 101.68 264.821C99.3155 263.059 96.6335 262.828 93.8361 262.713C80.0221 262.164 66.4389 260.113 53.3748 255.434C42.5312 251.563 32.6971 246.046 24.8529 237.439C18.9985 231.026 15.1052 223.545 13.2307 215.053C12.9135 213.609 12.8558 212.194 14.1247 211.096C15.3936 209.998 16.8356 210.027 18.2775 210.605C24.651 213.089 31.284 214.389 38.1189 214.88C52.2212 215.862 65.8333 213.782 78.8974 208.265C83.281 206.417 87.405 204.106 91.2117 201.217C97.4121 196.538 101.536 190.675 102.92 182.818C104.564 173.517 106.237 164.245 106.9 154.8C107.39 146.683 107.765 138.596 108.227 130.421ZM20.6135 218.23C21.9689 222.245 23.8146 225.827 26.1795 229.091C32.5529 237.901 41.2335 243.649 51.0676 247.779C64.5644 253.441 78.782 255.636 93.2593 256.445C103.353 256.994 113.476 256.763 123.54 255.665C131.442 254.798 139.344 253.903 147.188 252.603C165.415 249.541 183.209 244.775 200.743 238.883C218.046 233.077 234.859 226.087 251.269 218.115C252.567 217.479 253.836 216.786 255.133 216.122C254.643 215.92 254.268 215.891 253.864 215.92C248.443 216.555 242.992 216.613 237.542 216.18C230.216 215.602 223.151 213.927 216.575 210.634C214.24 209.45 211.615 208.496 209.741 206.763C206.799 204.019 203.396 202.488 199.705 201.391C191.774 199.051 183.555 198.127 175.364 197.954C166.886 197.78 158.378 198.04 149.899 198.387C139.661 198.82 129.539 200.293 119.474 202.171C110.246 203.904 101.104 206.012 92.2788 209.247C88.299 210.692 84.521 212.685 80.6278 214.331C71.5723 218.115 62.113 220.31 52.3366 221.032C44.377 221.639 36.4462 221.466 28.5731 219.935C25.9199 219.473 23.3821 218.837 20.6135 218.23ZM109.294 182.731C138.046 171.784 167.116 169.589 196.763 178.543C196.763 178.485 196.792 178.283 196.734 178.139C194.975 174.499 193.187 170.889 191.485 167.22C189.986 163.956 188.515 160.664 187.16 157.342C185.458 153.211 183.814 149.081 182.228 144.893C180.959 141.629 179.69 138.336 178.623 135.014C176.806 129.324 175.047 123.576 173.403 117.828C171.99 112.802 170.606 107.747 169.481 102.663C168.126 96.4242 167.059 90.0985 165.876 83.8017C165.732 83.0218 165.357 82.5308 164.578 82.1553C156.244 78.1114 148.602 72.97 141.68 66.8176C136.316 62.0227 131.385 56.8524 128.097 50.3245C127.895 49.9201 127.318 49.6601 126.857 49.4868C124.492 48.6781 122.041 48.1004 119.762 47.0894C112.005 43.7388 105.458 38.6551 99.7481 32.4738C99.3732 32.0694 98.7387 31.665 98.2196 31.665C95.4511 31.6939 92.6825 31.8672 89.914 32.0117C80.9162 32.4738 71.9183 32.2716 63.0647 30.5963C59.0849 29.8453 55.4223 29.1521 51.6444 31.3473C49.3084 32.7049 46.7418 33.6292 44.2904 34.7557C50.8369 36.0555 56.3164 39.2617 61.5939 42.93C63.0359 43.9121 64.5644 44.7498 66.0928 45.5874C69.2075 47.2627 72.5528 48.2448 76.1288 47.9848C78.9262 47.7826 81.7236 47.4071 84.521 47.0316C89.0776 46.3962 93.0286 47.4071 96.1721 50.931C96.7777 51.5954 97.3833 52.2309 97.9601 52.953C102.084 58.21 104.564 64.3046 106.554 70.6014C111.688 87.0656 113.476 104.021 114.081 121.149C114.456 131.808 114.312 142.466 113.303 153.096C112.668 159.739 111.861 166.354 110.995 172.939C110.563 176.261 109.871 179.496 109.294 182.731ZM112.87 262.799C112.985 262.944 113.014 263.03 113.072 263.059C113.389 263.204 113.735 263.348 114.052 263.464C125.444 267.565 137.268 269.212 149.294 269.616C157.196 269.876 165.098 269.501 173 268.634C184.16 267.392 195.148 265.255 205.934 262.106C224.247 256.762 241.521 249.195 257.008 237.843C265.371 231.72 272.841 224.701 278.349 215.775C279.676 213.638 280.743 211.356 281.954 209.132C281.867 209.074 281.752 208.987 281.665 208.93C281.377 209.103 281.06 209.247 280.771 209.421C273.937 213.147 267.217 217.046 260.296 220.599C244.03 228.976 227.275 236.197 210.029 242.349C178.594 253.556 146.41 261.095 112.87 262.799ZM102.517 199.427C102.603 199.427 102.863 199.456 103.093 199.398C112.235 197 121.464 195.123 130.837 194.054C139.402 193.072 147.996 192.263 156.59 191.743C162.531 191.397 168.472 191.599 174.441 191.686C181.161 191.801 187.823 192.494 194.427 193.765C196.821 194.227 199.185 194.805 201.608 195.354C201.262 193.852 200.541 192.437 200.656 191.079C200.973 187.584 198.811 186.486 196.129 185.389C185.804 181.2 174.989 179.756 164.002 179.41C153.274 179.063 142.661 180.074 132.163 182.327C123.829 184.118 115.754 186.602 108.169 190.588C107.737 190.819 107.246 191.079 107.016 191.454C105.516 194.083 104.016 196.769 102.517 199.427Z" fill="black"/>
<path d="M20.6135 218.231C23.3821 218.837 25.9199 219.473 28.4866 219.964C36.3597 221.495 44.2905 221.668 52.2501 221.062C62.0265 220.311 71.4858 218.144 80.5413 214.36C84.4634 212.714 88.2125 210.721 92.1923 209.277C101.017 206.042 110.159 203.933 119.388 202.2C129.452 200.322 139.575 198.849 149.813 198.416C158.292 198.041 166.799 197.781 175.278 197.983C183.497 198.156 191.687 199.08 199.618 201.42C203.31 202.518 206.713 204.02 209.654 206.793C211.5 208.526 214.124 209.479 216.489 210.663C223.093 213.985 230.13 215.631 237.455 216.209C242.906 216.642 248.356 216.613 253.778 215.949C254.153 215.891 254.557 215.949 255.047 216.151C253.749 216.815 252.48 217.509 251.183 218.144C234.86 226.116 218.046 233.077 200.743 238.912C183.237 244.805 165.415 249.571 147.189 252.632C139.344 253.932 131.442 254.856 123.54 255.694C113.476 256.792 103.382 257.023 93.2593 256.474C78.7821 255.665 64.5644 253.47 51.0677 247.809C41.2047 243.678 32.5241 237.93 26.1795 229.12C23.8147 225.827 21.969 222.246 20.6135 218.231Z" fill="#A24843"/>
<path d="M109.294 182.732C109.871 179.497 110.563 176.262 110.995 172.969C111.861 166.354 112.668 159.74 113.303 153.125C114.341 142.495 114.456 131.837 114.081 121.179C113.504 104.05 111.716 87.066 106.554 70.6306C104.593 64.3338 102.084 58.2392 97.9602 52.9822C97.4122 52.2889 96.7778 51.6246 96.1722 50.9602C93.0287 47.4363 89.0489 46.4254 84.5211 47.0608C81.7237 47.4652 78.9263 47.8118 76.1289 48.014C72.5529 48.274 69.2076 47.2919 66.0929 45.6166C64.5644 44.7789 63.0071 43.9413 61.594 42.9592C56.3165 39.2909 50.8659 36.0847 44.2905 34.7849C46.7419 33.6584 49.3085 32.7341 51.6445 31.3765C55.3936 29.1813 59.085 29.8745 63.0648 30.6255C71.9184 32.3297 80.9162 32.503 89.9141 32.0408C92.6826 31.8964 95.4512 31.752 98.2197 31.6942C98.7388 31.6942 99.3733 32.0986 99.7482 32.503C105.487 38.6843 112.005 43.768 119.763 47.1186C122.041 48.1007 124.492 48.6784 126.857 49.516C127.318 49.6604 127.895 49.9493 128.097 50.3537C131.385 56.8816 136.287 62.0808 141.68 66.8468C148.602 72.9992 156.244 78.1406 164.579 82.1845C165.357 82.56 165.732 83.051 165.876 83.8309C167.059 90.1277 168.126 96.4246 169.481 102.693C170.577 107.805 171.961 112.831 173.403 117.857C175.047 123.605 176.778 129.353 178.623 135.043C179.69 138.365 180.959 141.658 182.228 144.922C183.814 149.081 185.458 153.241 187.16 157.371C188.544 160.693 189.986 163.986 191.486 167.25C193.187 170.918 195.004 174.528 196.734 178.168C196.792 178.312 196.763 178.486 196.763 178.572C167.116 169.589 138.047 171.784 109.294 182.732Z" fill="#A24843"/>
<path d="M112.87 262.8C146.41 261.096 178.594 253.557 210.029 242.35C227.246 236.197 244.03 228.976 260.296 220.599C267.217 217.047 273.965 213.176 280.771 209.421C281.06 209.248 281.377 209.103 281.665 208.93C281.752 208.988 281.867 209.074 281.954 209.132C280.771 211.356 279.675 213.638 278.349 215.776C272.841 224.701 265.371 231.72 257.008 237.844C241.521 249.195 224.247 256.734 205.934 262.107C195.148 265.255 184.16 267.392 172.999 268.634C165.126 269.501 157.224 269.905 149.294 269.617C137.268 269.212 125.444 267.566 114.052 263.464C113.706 263.349 113.389 263.204 113.072 263.06C113.014 263.031 112.985 262.944 112.87 262.8Z" fill="#8D1414"/>
<path d="M102.517 199.427C104.016 196.77 105.516 194.083 107.044 191.426C107.275 191.05 107.765 190.79 108.198 190.559C115.754 186.573 123.858 184.089 132.192 182.298C142.69 180.045 153.302 179.034 164.031 179.381C175.018 179.728 185.833 181.201 196.157 185.36C198.839 186.458 201.002 187.555 200.685 191.05C200.57 192.408 201.262 193.823 201.637 195.325C199.186 194.777 196.821 194.199 194.456 193.737C187.852 192.466 181.19 191.773 174.47 191.657C168.53 191.57 162.56 191.368 156.619 191.715C148.025 192.235 139.431 193.072 130.866 194.026C121.493 195.094 112.264 196.972 103.122 199.369C102.863 199.456 102.603 199.427 102.517 199.427Z" fill="#310805"/>
</svg>
