<svg width="300" height="300" viewBox="0 0 300 300" fill="none" xmlns="http://www.w3.org/2000/svg">
<path d="M276.661 112.364C276.992 111.868 277.277 111.426 277.589 110.994C278.508 109.744 279.73 109.266 280.961 109.662C282.238 110.075 282.945 111.105 282.982 112.667C283.056 115.691 282.817 118.706 282.477 121.712C281.65 129.139 279.895 136.355 277.194 143.331C271.58 157.827 262.87 170.235 251.698 180.972C240.765 191.469 228.26 199.649 214.534 206.01C208.617 208.749 202.544 211.084 196.214 213.124C198.299 216.691 200.422 220.175 202.369 223.75C203.38 225.598 204.593 227.317 205.447 229.256C205.806 230.065 206.486 230.736 206.734 231.646C207.083 232.942 206.522 234.55 205.484 235.065C204.363 235.617 202.351 235.047 201.708 233.925C199.999 230.966 198.327 227.978 196.627 225.019C194.946 222.086 193.163 219.2 191.592 216.213C190.922 214.944 190.242 214.816 188.965 215.183C184.573 216.461 180.089 217.435 175.569 218.162C174.531 218.327 174.669 218.86 174.843 219.513C176.01 223.879 177.204 228.236 178.371 232.593C179.74 237.703 181.109 242.814 182.469 247.934C182.892 249.533 182.065 251.123 180.53 251.583C179.171 251.997 177.498 250.903 177.076 249.331C174.742 240.608 172.427 231.885 170.102 223.162C169.818 222.086 169.45 221.029 169.211 219.936C169.083 219.366 168.779 219.255 168.32 219.32C165.224 219.761 162.109 220.064 158.985 220.322C157.506 220.441 156.018 220.662 154.538 220.616C153.344 220.579 153.234 221.057 153.234 222.068C153.271 233.089 153.261 244.11 153.271 255.14C153.271 255.793 153.271 256.436 153.05 257.07C152.637 258.256 151.405 259.102 150.229 258.991C148.989 258.872 147.942 257.898 147.758 256.638C147.675 256.032 147.675 255.416 147.675 254.809C147.648 243.899 147.611 232.997 147.638 222.086C147.638 221.048 147.344 220.864 146.371 220.846C141.823 220.79 137.266 220.744 132.745 220.239C131.716 220.119 131.22 220.377 130.935 221.471C128.501 230.736 125.992 239.992 123.512 249.248C122.979 251.252 121.389 251.831 120.121 251.574C118.55 251.252 117.668 249.579 118.118 247.897C119.377 243.136 120.627 238.374 121.895 233.622C123.135 228.971 124.394 224.32 125.662 219.595C121.003 218.961 116.391 218.244 111.825 217.252C111.081 217.086 110.337 216.93 109.592 216.774C109.013 216.654 108.701 216.82 108.37 217.399C106.542 220.607 104.585 223.741 102.775 226.958C101.526 229.173 100.267 231.37 98.9714 233.558C98.1261 234.992 96.2518 235.837 95.039 235.019C93.7528 234.146 93.3485 232.317 94.1203 230.938C96.7296 226.296 99.3756 221.682 102.104 217.104C103.262 215.156 103.29 215.183 100.947 214.503C84.6478 209.751 69.5708 202.517 56.0833 192.103C45.1867 183.683 36.0909 173.664 29.2553 161.66C23.8989 152.247 20.3892 142.182 18.7814 131.455C17.9361 125.839 17.9177 120.177 18.0831 114.515C18.1015 113.825 18.1934 113.136 18.322 112.465C18.6619 110.7 20.4535 109.625 22.4105 110.158C23.2558 110.388 23.6049 110.139 24.0459 109.514C32.5904 97.3169 42.5774 86.4522 54.0988 77.0123C63.2864 69.475 73.1999 63.0683 83.8393 57.7738C96.2702 51.5785 109.308 47.2124 122.933 44.6112C127.655 43.7104 132.424 43.0669 137.22 42.6441C142.062 42.2213 146.903 41.9272 151.764 42.0191C170.222 42.3776 188.083 45.8061 205.19 52.8102C234.857 64.971 258.267 84.7242 275.981 111.362C276.192 111.684 276.404 111.987 276.661 112.364ZM79.7875 163.948C79.6956 164.196 79.9713 164.169 80.054 164.288C82.2039 165.345 84.3446 166.43 86.5129 167.45C105.09 176.155 124.678 180.65 145.139 181.367C154.621 181.698 164.066 181.063 173.456 179.611C186.236 177.635 198.547 174.087 210.418 168.995C211.925 168.342 213.578 167.928 214.828 166.752C215.251 166.743 215.646 166.678 216.032 166.476C218.962 164.932 221.958 163.498 224.842 161.862C242.115 152.054 256.898 139.369 268.989 123.578C270.276 121.896 271.589 120.232 272.784 118.256C271.709 118.256 270.799 118.256 269.899 118.256C259.342 118.274 248.786 118.283 238.229 118.302C238.119 118.293 237.999 118.274 237.889 118.274C217.502 118.329 197.114 118.394 176.727 118.421C175.587 118.421 175.707 118.807 175.992 119.625C178.684 127.301 178.261 134.847 174.081 141.824C167.714 152.468 157.892 156.65 145.801 155.611C139.103 155.032 133.14 152.311 128.28 147.642C120.241 139.921 117.099 130.61 119.993 119.607C120.296 118.467 119.91 118.476 119.028 118.476C103.455 118.495 87.891 118.495 72.3179 118.504C67.9997 118.504 63.6723 118.541 59.3541 118.559C49.3763 118.587 39.3893 118.614 29.4115 118.651C29.2645 118.651 29.1083 118.669 29.0532 118.936C31.1755 122.089 33.4725 125.177 35.898 128.174C47.2631 142.219 60.916 153.552 76.6269 162.432C77.6468 163.011 78.5747 163.838 79.8151 163.994L79.7875 163.948ZM276.56 122.843C276.293 122.879 276.202 123.109 276.082 123.284C273.023 127.595 269.724 131.703 266.196 135.638C253.214 150.124 237.999 161.678 220.598 170.364C210.151 175.585 199.273 179.602 187.926 182.341C185.446 182.939 182.938 183.444 180.448 184.023C180.099 184.106 179.345 184.023 179.768 184.804C180.154 185.521 180.613 186.192 181.026 186.9C182.983 190.292 184.922 193.684 186.861 197.085C188.753 200.412 190.784 203.657 192.585 207.039C193.062 207.949 193.687 208.152 194.734 207.802C201.873 205.431 208.847 202.683 215.6 199.355C227.571 193.445 238.495 186.036 248.096 176.725C261.106 164.105 270.597 149.343 275.053 131.602C275.77 128.735 276.505 125.857 276.578 122.861C276.624 122.833 276.679 122.806 276.725 122.787C276.698 122.741 276.661 122.705 276.633 122.659C276.606 122.723 276.578 122.778 276.56 122.843ZM270.046 112.686C270.027 112.539 270.037 112.493 270.018 112.465C269.917 112.3 269.816 112.143 269.706 111.987C251.349 85.5514 227.277 66.4785 196.884 55.6046C184.003 50.9995 170.69 48.4533 157.047 47.8007C151.819 47.5525 146.573 47.6169 141.336 47.9386C135.842 48.2787 130.384 48.9037 124.972 49.8873C107.874 52.9941 91.8417 58.9963 76.8842 67.8205C59.3082 78.198 44.4609 91.6456 32.1035 107.86C30.8632 109.487 29.6871 111.169 28.3182 113.035C109.05 112.915 189.516 112.805 270.046 112.686ZM23.5773 120.682C23.5406 124.037 23.853 126.997 24.2297 129.957C25.4792 139.608 28.5387 148.672 33.1325 157.211C38.5165 167.221 45.6461 175.861 54.1815 183.334C69.0012 196.303 86.2097 204.714 105.09 209.916C106.018 210.174 106.322 209.871 106.717 209.154C108.223 206.424 109.73 203.694 111.356 201.028C113.203 197.995 114.94 194.897 116.722 191.836C118.054 189.547 119.432 187.277 120.682 184.924C121.031 184.271 120.884 184.271 120.388 184.17C119.083 183.904 117.769 183.646 116.465 183.361C101.507 180.062 87.3214 174.739 73.9533 167.23C56.901 157.652 42.2926 145.234 30.1925 129.856C27.9323 126.979 25.8007 124.01 23.5773 120.682ZM126.204 214.025C126.755 214.108 127.196 214.163 127.398 213.391C129.704 204.65 132.038 195.917 134.381 187.194C134.528 186.661 134.675 186.257 133.894 186.156C131.771 185.898 129.658 185.604 127.536 185.338C127.159 185.292 126.691 185.374 126.599 185.779C126.378 186.67 125.708 187.277 125.276 188.031C122.804 192.415 120.25 196.754 117.723 201.102C115.831 204.365 113.966 207.646 112.036 210.882C111.65 211.525 111.999 211.589 112.45 211.681C117.007 212.683 121.582 213.474 126.204 214.025ZM173.64 212.904C174.127 212.812 174.613 212.72 175.1 212.637C179.115 211.92 183.094 211.01 187.044 210.008C187.715 209.834 187.871 209.687 187.439 209.016C186.447 207.471 185.565 205.854 184.637 204.273C182.882 201.267 181.072 198.298 179.4 195.246C177.939 192.572 176.313 189.989 174.871 187.295C174.43 186.468 174.191 184.998 172.5 185.319C170.672 185.669 168.798 185.843 166.951 186.064C166.234 186.146 165.94 186.367 166.188 187.167C166.74 188.941 167.217 190.742 167.695 192.544C169.468 199.153 171.242 205.771 172.969 212.389C173.079 212.83 173.226 212.95 173.64 212.904ZM132.791 214.678C137.587 215.183 142.209 215.202 146.83 215.22C147.491 215.22 147.666 214.99 147.666 214.356C147.638 205.477 147.62 196.607 147.629 187.727C147.629 187.038 147.372 186.909 146.756 186.919C145.149 186.937 143.55 186.919 141.942 186.744C140.288 186.569 140.316 186.643 139.866 188.325C138.249 194.419 136.595 200.504 134.959 206.598C134.243 209.255 133.535 211.929 132.791 214.678ZM153.225 200.918H153.234C153.234 203.059 153.234 205.201 153.234 207.343C153.234 209.678 153.234 212.003 153.243 214.338C153.243 214.678 153.096 215.147 153.757 215.091C158.131 214.779 162.504 214.485 166.859 213.942C167.521 213.86 167.502 213.501 167.374 213.033C166.225 208.786 165.077 204.539 163.919 200.293C162.771 196.046 161.604 191.809 160.492 187.553C160.308 186.854 160.005 186.634 159.316 186.68C157.681 186.79 156.036 186.909 154.401 186.891C153.473 186.882 153.179 187.093 153.188 188.077C153.261 192.36 153.225 196.644 153.225 200.918Z" fill="white"/>
<path d="M270.045 112.685C189.516 112.804 109.05 112.924 28.3179 113.034C29.6776 111.168 30.8537 109.486 32.1032 107.859C44.4606 91.6449 59.3079 78.1973 76.8839 67.8198C91.8414 58.9956 107.883 52.9934 124.972 49.8866C130.384 48.903 135.841 48.278 141.335 47.9379C146.572 47.6162 151.819 47.5518 157.046 47.8C170.699 48.4618 184.012 50.9988 196.884 55.6039C227.277 66.4686 251.349 85.5416 269.706 111.977C269.816 112.133 269.917 112.299 270.018 112.455C270.036 112.492 270.027 112.538 270.045 112.685Z" fill="#C2BFBC"/>
<path d="M59.3538 118.549C63.672 118.531 67.9994 118.503 72.3176 118.494C87.8907 118.485 103.455 118.494 119.028 118.467C119.91 118.467 120.296 118.457 119.992 119.597C117.098 130.6 120.24 139.902 128.28 147.632C133.14 152.302 139.103 155.032 145.801 155.601C157.892 156.64 167.704 152.449 174.08 141.814C178.261 134.837 178.674 127.3 175.991 119.616C175.706 118.798 175.587 118.411 176.726 118.411C197.114 118.384 217.501 118.32 237.889 118.264C237.999 118.264 238.118 118.283 238.229 118.292C238.054 120.811 237.879 123.329 237.484 125.82C235.27 139.553 229.142 151.364 219.826 161.585C218.218 163.35 216.5 165.023 214.837 166.742C213.587 167.909 211.933 168.332 210.427 168.985C198.556 174.086 186.236 177.625 173.465 179.601C164.075 181.054 154.63 181.688 145.148 181.357C124.687 180.64 105.099 176.145 86.5217 167.441C84.3534 166.42 82.2127 165.336 80.0628 164.279C79.9709 164.168 79.8882 164.058 79.7963 163.938L79.8239 163.975C79.5023 163.598 79.1991 163.212 78.8592 162.863C72.6667 156.346 67.7145 149.011 64.26 140.683C61.3015 133.596 59.7948 126.197 59.3538 118.549Z" fill="#555859"/>
<path d="M23.5769 120.682C25.8004 124.009 27.9319 126.978 30.1921 129.855C42.283 145.233 56.8914 157.651 73.9529 167.229C87.321 174.739 101.507 180.061 116.464 183.361C117.769 183.646 119.083 183.903 120.387 184.17C120.884 184.271 121.031 184.271 120.681 184.923C119.441 187.267 118.054 189.547 116.722 191.836C114.939 194.906 113.212 198.003 111.356 201.027C109.73 203.693 108.223 206.423 106.716 209.153C106.321 209.87 106.018 210.173 105.09 209.916C86.2093 204.713 69.0008 196.303 54.1811 183.333C45.6457 175.86 38.5161 167.22 33.1321 157.21C28.5383 148.671 25.4696 139.608 24.2293 129.956C23.8526 126.997 23.5494 124.037 23.5769 120.682Z" fill="#C2BFBC"/>
<path d="M276.578 122.86C276.504 125.848 275.769 128.725 275.053 131.593C270.597 149.333 261.106 164.095 248.096 176.715C238.504 186.026 227.571 193.435 215.599 199.345C208.846 202.682 201.873 205.421 194.734 207.793C193.678 208.142 193.062 207.94 192.584 207.03C190.793 203.647 188.753 200.402 186.86 197.075C184.922 193.674 182.983 190.273 181.026 186.89C180.622 186.183 180.162 185.512 179.767 184.795C179.345 184.013 180.098 184.096 180.447 184.013C182.937 183.434 185.436 182.938 187.926 182.331C199.273 179.592 210.16 175.566 220.597 170.354C237.999 161.668 253.214 150.114 266.196 135.628C269.724 131.694 273.022 127.585 276.082 123.274C276.21 123.099 276.302 122.87 276.559 122.833L276.578 122.86Z" fill="#C2BFBC"/>
<path d="M214.837 166.742C216.5 165.023 218.218 163.35 219.826 161.585C229.142 151.364 235.27 139.553 237.484 125.82C237.889 123.329 238.054 120.81 238.228 118.292C248.785 118.274 259.342 118.264 269.898 118.246C270.799 118.246 271.708 118.246 272.783 118.246C271.589 120.222 270.275 121.886 268.989 123.568C256.898 139.36 242.115 152.044 224.842 161.852C221.957 163.488 218.971 164.922 216.031 166.466C215.654 166.668 215.259 166.733 214.837 166.742Z" fill="#FEFEFE"/>
<path d="M59.3536 118.549C59.7854 126.197 61.3014 133.596 64.2414 140.692C67.696 149.02 72.6481 156.355 78.8406 162.872C79.1806 163.231 79.4838 163.617 79.8053 163.984C78.565 163.828 77.6371 163.001 76.6172 162.422C60.9155 153.542 47.2626 142.209 35.8883 128.164C33.4627 125.167 31.1658 122.079 29.0435 118.926C29.0894 118.66 29.2456 118.641 29.4018 118.641C39.398 118.604 49.3758 118.577 59.3536 118.549Z" fill="#FDFDFE"/>
<path d="M126.203 214.025C121.591 213.464 117.006 212.683 112.458 211.699C112.008 211.598 111.668 211.543 112.045 210.899C113.965 207.655 115.839 204.382 117.732 201.119C120.259 196.762 122.813 192.433 125.284 188.048C125.707 187.295 126.378 186.688 126.607 185.796C126.709 185.392 127.168 185.309 127.545 185.355C129.667 185.613 131.78 185.916 133.902 186.173C134.693 186.265 134.536 186.67 134.389 187.212C132.047 195.944 129.704 204.667 127.407 213.409C127.186 214.162 126.754 214.107 126.203 214.025Z" fill="#C2BFBC"/>
<path d="M173.639 212.903C173.235 212.949 173.088 212.83 172.968 212.379C171.232 205.761 169.459 199.143 167.695 192.534C167.217 190.742 166.739 188.94 166.188 187.157C165.94 186.357 166.234 186.137 166.951 186.054C168.806 185.833 170.672 185.668 172.5 185.309C174.19 184.988 174.42 186.458 174.87 187.286C176.313 189.979 177.939 192.552 179.4 195.236C181.063 198.288 182.882 201.257 184.637 204.263C185.565 205.853 186.447 207.462 187.439 209.006C187.871 209.677 187.715 209.824 187.044 209.998C183.093 211.01 179.115 211.91 175.1 212.627C174.613 212.719 174.126 212.82 173.639 212.903Z" fill="#C2BFBC"/>
<path d="M132.791 214.677C133.526 211.92 134.242 209.254 134.959 206.588C136.594 200.503 138.248 194.418 139.865 188.315C140.315 186.633 140.288 186.559 141.942 186.734C143.54 186.909 145.148 186.927 146.756 186.909C147.372 186.9 147.629 187.037 147.629 187.718C147.62 196.597 147.638 205.467 147.666 214.346C147.666 214.98 147.5 215.21 146.83 215.21C142.208 215.21 137.587 215.183 132.791 214.677Z" fill="#C2BFBC"/>
<path d="M153.224 200.917C153.224 196.634 153.261 192.359 153.196 188.076C153.187 187.093 153.481 186.881 154.409 186.89C156.045 186.909 157.689 186.789 159.325 186.679C160.014 186.633 160.317 186.854 160.501 187.552C161.612 191.808 162.779 196.045 163.928 200.292C165.076 204.539 166.234 208.785 167.382 213.032C167.511 213.501 167.529 213.859 166.868 213.942C162.513 214.484 158.139 214.778 153.766 215.091C153.095 215.137 153.252 214.677 153.252 214.337C153.242 212.002 153.242 209.677 153.242 207.342C153.242 205.2 153.242 203.059 153.242 200.917C153.233 200.917 153.233 200.917 153.224 200.917Z" fill="#C2BFBC"/>
<path d="M276.559 122.842C276.587 122.777 276.605 122.722 276.633 122.658C276.66 122.704 276.697 122.741 276.725 122.787C276.679 122.814 276.624 122.842 276.578 122.86L276.559 122.842Z" fill="#C2BFBC"/>
<path d="M79.7872 163.948C79.8791 164.058 79.9618 164.168 80.0537 164.288C79.971 164.168 79.7045 164.196 79.7872 163.948Z" fill="#FDFDFE"/>
</svg>
