<svg width="150" height="150" viewBox="0 0 150 150" fill="none" xmlns="http://www.w3.org/2000/svg">
<path d="M48.3668 105.576C48.1935 104.998 47.6229 105.018 47.195 104.846C36.7611 100.729 27.713 94.7367 20.8657 85.7428C16.2194 79.6489 13.3052 72.8249 12.3372 65.2303C12.1335 63.6282 11.95 62.0059 12.0214 60.3734C12.1029 58.3353 13.0403 57.149 15.0782 56.7637C15.659 56.6521 15.8933 56.2668 16.1684 55.8815C22.5673 47.1107 30.515 40.0636 40.0523 34.8316C47.6026 30.6845 55.642 28.0076 64.1908 26.7604C68.9391 26.0709 73.6975 25.8377 78.4661 26.1115C87.015 26.6083 95.248 28.5551 103.135 31.9316C115.138 37.0724 125.143 44.7989 133.326 54.9081C133.682 55.3542 134.029 55.8004 134.375 56.2567C134.63 56.5913 134.885 56.7738 135.374 56.7839C137.636 56.8245 139.021 58.2136 138.991 60.5964C138.95 64.338 138.339 68.0187 137.197 71.5878C133.957 81.7681 127.63 89.7175 119.152 96.0954C113.446 100.384 107.129 103.487 100.414 105.829C100.006 105.971 99.3645 105.84 99.3135 106.539C98.7939 106.58 98.3557 106.539 98.1417 105.951C97.6323 104.511 97.1126 103.061 96.542 101.642C96.2567 100.932 96.4707 100.668 97.1737 100.638C102.758 98.7418 108.137 96.3894 113.049 93.0839C121.21 87.5882 127.609 80.6527 131.002 71.2735C131.257 70.5637 131.654 69.854 131.43 68.9414C131.013 69.2354 130.758 69.6613 130.411 69.9959C120.375 79.9125 108.688 87.1117 95.0747 91.1067C94.6162 91.2385 94.0966 91.2385 93.7603 91.6644C92.9044 91.786 92.6395 91.2284 92.4153 90.5693C91.9772 89.2511 91.5492 87.9127 89.9291 87.5375C89.3483 87.4057 89.5114 86.9291 89.4808 86.554C89.5929 86.4931 89.6948 86.412 89.8068 86.3816C95.4212 85.0939 100.801 83.1268 105.937 80.531C106.884 80.0545 108.005 79.7908 108.637 78.7971C109.289 78.8377 109.798 78.4727 110.318 78.1685C116.666 74.4168 122.372 69.854 127.497 64.5611C127.66 64.3887 128.027 64.2569 127.844 63.9121C123.656 63.9121 119.499 63.9121 115.331 63.9121C106.273 63.9628 97.2145 64.0135 88.1562 64.0439C87.5448 64.0439 87.2391 64.196 87.3003 64.8652C87.341 65.2708 87.3105 65.6764 87.2799 66.082C86.8519 72.2469 81.472 78.4524 73.6669 77.9353C65.8007 77.408 61.2767 70.8476 61.5314 65.0883C61.562 64.3988 61.4193 64.0845 60.6144 64.0845C51.8413 64.1251 43.0683 64.1352 34.2953 64.1453C30.4743 64.1453 26.6533 64.1453 22.6794 64.1453C22.8628 64.3887 22.9342 64.5104 23.0361 64.6219C28.0186 70.1176 33.6432 74.8325 40.0523 78.6045C40.2357 78.716 40.4191 78.9492 40.684 78.7769L40.6636 78.7464C40.521 79.0506 40.7349 79.1216 40.9591 79.1824C47.358 82.7516 54.1136 85.3879 61.3174 86.848C61.4805 86.8987 61.6435 86.9494 61.8065 87.0103C62.0511 87.0305 62.2956 87.061 62.5402 87.0812C62.7134 87.1319 62.8866 87.1826 63.0598 87.2435C63.3757 87.2739 63.7017 87.3043 64.0176 87.3347C64.1908 87.3854 64.364 87.4361 64.5373 87.4868C64.9346 87.5172 65.332 87.5477 65.7294 87.5781C65.8823 87.7403 66.0759 87.7505 66.2695 87.72C66.9114 87.7707 67.5533 87.8113 68.1952 87.862C68.3583 87.9025 68.5315 87.933 68.6945 87.9735C69.4078 87.9735 70.121 87.9735 70.8343 87.9837C71.5679 88.0851 71.843 88.5413 71.843 89.241C71.8328 90.5287 71.8328 91.8063 71.843 93.0941C71.8532 93.7126 71.6698 94.1182 70.9566 94.0877C70.1516 93.601 69.2244 94.037 68.3888 93.7531C68.1952 93.7126 68.0016 93.672 67.8182 93.6315C67.1967 93.5808 66.5649 93.5402 65.9434 93.4895C65.8313 93.4591 65.709 93.4287 65.597 93.3881C65.1384 93.3475 64.6901 93.307 64.2316 93.2664C64.1093 93.2259 63.987 93.1853 63.8648 93.1448C63.4062 93.1448 62.9375 93.1752 62.4994 92.9724C62.4077 92.942 62.316 92.9115 62.2345 92.8811C61.9186 92.8507 61.6027 92.8101 61.297 92.7797C61.1748 92.7392 61.0627 92.6986 60.9404 92.6581C60.4106 92.7392 59.8807 92.4248 59.3407 92.6175C58.5969 92.4553 58.8312 91.8672 58.9026 91.4514C58.9943 90.9444 59.2694 90.478 59.4324 89.9812C59.6464 89.3221 59.84 88.5718 59.249 88.0648C58.6274 87.5274 57.8531 87.3145 56.9971 87.6896C56.2126 88.0344 55.6623 88.5211 55.3974 89.3728C55.1325 90.2245 54.9083 91.1878 53.7977 91.4007C53.7875 90.7315 53.1761 90.8228 52.8195 90.7112C40.4395 86.8379 29.8527 80.1153 20.8352 70.8781C20.397 70.4319 19.9996 69.9554 19.5819 69.4991C19.4188 69.9047 19.4494 70.1379 19.5207 70.3711C20.7129 74.2343 22.496 77.8136 24.8498 81.0988C30.6271 89.1497 38.3914 94.6657 47.4497 98.4884C48.4585 98.9142 49.3348 99.7051 50.5167 99.695C50.7307 100.07 51.3726 100.141 51.1077 100.851C50.5982 102.22 50.1397 103.599 49.5284 104.927C49.2736 105.444 48.917 105.647 48.3668 105.576ZM21.9764 58.2339C25.1758 58.3759 126.896 58.0514 127.895 57.8993C101.015 24.0024 48.6215 22.664 21.9764 58.2339Z" fill="#060708"/>
<path d="M53.7967 91.4312C54.9073 91.2082 55.1315 90.2449 55.3964 89.4033C55.6613 88.5516 56.2116 88.0649 56.9962 87.7201C57.8521 87.345 58.6264 87.568 59.248 88.0953C59.8492 88.6023 59.6454 89.3425 59.4314 90.0117C59.2684 90.5085 58.9933 90.9749 58.9016 91.4819C58.8302 91.8977 58.5857 92.4858 59.3397 92.648C58.3615 95.3147 57.4445 98.0017 56.3848 100.638C56.0485 101.459 56.2829 101.52 56.9554 101.693C61.2961 102.828 65.7182 103.406 70.171 103.822C70.8944 103.893 71.0778 103.67 71.0676 102.97C71.0065 100.02 70.9963 97.0587 70.9658 94.098C71.6688 94.1284 71.8522 93.7228 71.8522 93.1043C71.842 91.8165 71.842 90.5389 71.8522 89.2512C71.8624 88.5516 71.5771 88.0953 70.8435 87.9939C70.874 86.9799 70.7722 85.9457 70.9454 84.9621C71.3326 82.8125 72.1171 82.4779 74.0531 82.4678C75.8159 82.4475 76.682 83.431 76.7941 85.2055C76.8348 85.8139 76.845 86.4222 76.8144 87.0306C76.7737 87.7303 76.9673 88.0446 77.7722 88.0344C79.4433 88.004 81.1042 87.8418 82.7548 87.6086C85.0067 87.2942 87.2483 86.9089 89.49 86.5541C89.5206 86.9394 89.3575 87.4058 89.9383 87.5376C91.5584 87.9026 91.9864 89.2512 92.4245 90.5694C92.6487 91.2386 92.9136 91.7861 93.7695 91.6644C94.9107 94.6556 96.0417 97.6468 97.1829 100.628C96.4799 100.648 96.2659 100.922 96.5512 101.632C97.1218 103.051 97.6313 104.491 98.1509 105.941C98.3649 106.529 98.8132 106.58 99.3227 106.529C100.79 110.433 102.257 114.347 103.725 118.251C104.112 119.275 104.407 120.339 104.845 121.343C105.243 122.225 105.518 123.016 104.815 123.888C104.04 124.841 102.95 124.994 101.921 124.892C100.484 124.74 99.5469 123.858 99.0476 122.428C97.4275 117.804 95.7462 113.211 94.0854 108.608C93.8408 107.939 93.5046 107.766 92.7098 107.939C87.9718 108.993 83.193 109.754 78.3225 109.743C77.2526 109.743 76.9775 110.098 76.9877 111.163C77.059 117.054 77.0386 122.945 77.0488 128.836C77.0488 130.297 76.3661 131.341 75.174 131.797C73.9716 132.254 72.81 131.888 71.7707 130.824C71.1288 130.165 71.1288 129.374 71.1186 128.573C71.1084 122.722 71.0778 116.872 71.1288 111.021C71.139 110.038 70.9148 109.774 69.8857 109.713C64.9642 109.429 60.0937 108.699 55.3251 107.391C54.296 107.107 53.8476 107.219 53.4604 108.324C52.0747 112.319 50.5972 116.284 49.0587 120.228C48.5594 121.516 48.4473 122.986 47.3468 124.04C46.0834 125.247 44.0761 125.085 42.9654 124.304C42.1401 123.726 41.9159 122.874 42.2929 121.87C44.1576 116.882 45.9815 111.873 47.8257 106.884C47.9888 106.438 48.1824 106.012 48.3658 105.576C48.916 105.657 49.2726 105.454 49.5172 104.927C50.1285 103.599 50.5972 102.22 51.0965 100.851C51.3614 100.131 50.7093 100.06 50.5055 99.6951C50.7705 98.9954 51.0252 98.2856 51.3207 97.5961C52.197 95.5581 52.7574 93.3983 53.7967 91.4312ZM76.9265 99.0056C76.9367 99.0056 76.9571 99.0056 76.9673 99.0056C76.9673 100.344 77.008 101.682 76.9469 103.021C76.9163 103.741 77.1813 103.933 77.8537 103.883C79.3108 103.771 80.7883 103.741 82.2454 103.609C85.1188 103.345 87.9718 102.899 90.8044 102.291C91.2426 102.2 91.5584 102.037 91.3546 101.52C90.3153 98.823 89.276 96.136 88.2265 93.449C88.0635 93.0434 87.8291 92.8204 87.3095 92.9218C84.1813 93.4997 81.0328 93.885 77.8537 93.9763C77.0182 93.9966 76.8756 94.4022 76.896 95.1322C76.9571 96.4098 76.9265 97.7077 76.9265 99.0056Z" fill="#0A0A0B"/>
<path d="M21.9753 58.234C48.6205 22.6641 101.014 24.0025 127.894 57.8994C126.895 58.0515 25.1748 58.3861 21.9753 58.234Z" fill="#EED9C8"/>
<path d="M89.49 86.5642C87.2483 86.9191 85.0066 87.3044 82.7548 87.6187C81.1041 87.8519 79.4433 88.004 77.7722 88.0446C76.9774 88.0649 76.7838 87.7404 76.8144 87.0407C76.845 86.4324 76.8246 85.824 76.794 85.2156C76.6921 83.4412 75.8158 82.4678 74.0531 82.4779C72.1273 82.4982 71.3427 82.8328 70.9453 84.9723C70.7619 85.9558 70.8638 86.99 70.8434 88.004C70.1302 88.004 69.4169 88.004 68.7037 87.9939C68.561 87.8621 68.398 87.8215 68.2044 87.8823C67.5625 87.8316 66.9205 87.7911 66.2786 87.7404C66.1258 87.5984 65.9424 87.5477 65.7386 87.5883C65.3412 87.5579 64.9438 87.5274 64.5464 87.497C64.3732 87.4463 64.2 87.3956 64.0268 87.3449C63.7109 87.3145 63.3848 87.2841 63.069 87.2537C62.8958 87.203 62.7225 87.1523 62.5493 87.0914C62.3048 87.0712 62.0602 87.0407 61.8157 87.0205C61.6527 86.9698 61.4896 86.9191 61.3266 86.8582C54.1227 85.3981 47.3672 82.7618 40.9683 79.1926C40.9683 78.9797 41.0294 78.7262 40.6728 78.7566L40.6932 78.7871C40.7747 78.3004 40.3671 78.0773 40.1328 77.7731C37.0658 73.7172 35.0279 69.2152 34.3146 64.1657C43.0877 64.1454 51.8607 64.1454 60.6337 64.1048C61.4387 64.1048 61.5813 64.409 61.5508 65.1087C61.3062 70.868 65.8201 77.4284 73.6863 77.9556C81.4913 78.4829 86.8713 72.2673 87.2992 66.1024C87.3298 65.6968 87.3604 65.2912 87.3196 64.8856C87.2483 64.2164 87.5642 64.0643 88.1755 64.0643C97.2339 64.0339 106.292 63.9832 115.351 63.9325C115.157 65.4636 114.79 66.9541 114.342 68.4345C113.17 72.2875 111.071 75.6336 108.666 78.8073C108.035 79.801 106.914 80.0545 105.966 80.5412C100.831 83.137 95.4609 85.1041 89.8364 86.3918C89.7039 86.4222 89.602 86.5033 89.49 86.5642Z" fill="#087DA6"/>
<path d="M97.1727 100.648C96.0315 97.657 94.9005 94.6658 93.7593 91.6847C94.0956 91.2589 94.6152 91.2589 95.0737 91.1271C108.697 87.1219 120.374 79.9227 130.421 70.0062C130.767 69.6715 131.022 69.2457 131.44 68.9516C131.664 69.8642 131.266 70.574 131.012 71.2838C127.619 80.6629 121.23 87.5985 113.058 93.0942C108.136 96.3997 102.767 98.742 97.1727 100.648Z" fill="#EDD7C7"/>
<path d="M53.7967 91.4312C52.7574 93.3983 52.1969 95.5581 51.3207 97.586C51.0252 98.2755 50.7806 98.9853 50.5055 99.6849C49.3235 99.6951 48.4473 98.9042 47.4385 98.4783C38.3904 94.6557 30.6159 89.1498 24.8386 81.0888C22.4848 77.8035 20.7017 74.2242 19.5095 70.361C19.4382 70.138 19.4178 69.8946 19.5707 69.489C19.9884 69.9554 20.3858 70.432 20.8239 70.868C29.8415 80.1052 40.4384 86.838 52.8083 90.7417C53.1751 90.8634 53.7865 90.762 53.7967 91.4312Z" fill="#ECD7C7"/>
<path d="M70.9657 94.1182C70.9963 97.079 71.0065 100.03 71.0676 102.99C71.0778 103.68 70.8944 103.903 70.171 103.842C65.7182 103.426 61.2961 102.848 56.9554 101.713C56.2829 101.54 56.0485 101.48 56.3848 100.658C57.4547 98.0321 58.3717 95.335 59.3397 92.6683C59.8797 92.4756 60.3994 92.7899 60.9394 92.7088C61.0617 92.7494 61.1738 92.7899 61.2961 92.8305C61.6119 92.8609 61.9278 92.9015 62.2335 92.9319C62.3252 92.9623 62.4169 92.9927 62.4984 93.0231C62.9365 93.2259 63.3951 93.1955 63.8638 93.1955C63.986 93.2361 64.1083 93.2766 64.2306 93.3172C64.6891 93.3578 65.1374 93.3983 65.596 93.4389C65.708 93.4693 65.8303 93.4997 65.9424 93.5403C66.5639 93.591 67.1957 93.6315 67.8172 93.6822C67.9905 93.8242 68.1841 93.8546 68.3878 93.8039C69.2336 94.0675 70.1608 93.6315 70.9657 94.1182Z" fill="#ECD7C6"/>
<path d="M108.646 78.8175C111.051 75.6337 113.15 72.2977 114.321 68.4446C114.77 66.9642 115.137 65.4737 115.33 63.9426C119.498 63.9426 123.655 63.9426 127.843 63.9426C128.026 64.2874 127.659 64.4091 127.496 64.5916C122.381 69.8845 116.675 74.4473 110.317 78.199C109.808 78.493 109.298 78.8479 108.646 78.8175Z" fill="#FBFBFC"/>
<path d="M34.3146 64.1758C35.0279 69.2253 37.0658 73.7273 40.1328 77.7832C40.3671 78.0874 40.7747 78.3105 40.6932 78.7972C40.4181 78.9797 40.2448 78.7363 40.0614 78.6248C33.6523 74.8528 28.0278 70.1379 23.0452 64.6422C22.9433 64.5307 22.872 64.409 22.6886 64.1656C26.6726 64.1758 30.4936 64.1758 34.3146 64.1758Z" fill="#FBFCFC"/>
<path d="M40.6728 78.7769C41.0294 78.7465 40.9683 79.0101 40.9683 79.2129C40.7441 79.1521 40.5302 79.0811 40.6728 78.7769Z" fill="#FBFCFC"/>
<path d="M61.3266 86.8785C61.4897 86.9292 61.6527 86.9799 61.8157 87.0407C61.6527 86.99 61.4897 86.9292 61.3266 86.8785Z" fill="#0A0A0B"/>
<path d="M62.5493 87.1117C62.7226 87.1624 62.8958 87.2233 63.069 87.274C62.8958 87.2233 62.7226 87.1624 62.5493 87.1117Z" fill="#0A0A0B"/>
<path d="M64.0166 87.3652C64.1898 87.4159 64.363 87.4666 64.5363 87.5173C64.3732 87.4666 64.2 87.4159 64.0166 87.3652Z" fill="#0A0A0B"/>
<path d="M65.7386 87.6086C65.9424 87.5579 66.1258 87.6086 66.2786 87.7606C66.0749 87.7708 65.8813 87.7708 65.7386 87.6086Z" fill="#0A0A0B"/>
<path d="M68.2044 87.8924C68.398 87.8316 68.5611 87.8823 68.7037 88.004C68.5407 87.9634 68.3675 87.933 68.2044 87.8924Z" fill="#0A0A0B"/>
<path d="M68.3981 93.7735C68.1841 93.8343 67.9905 93.7938 67.8275 93.6518C68.0109 93.7025 68.2045 93.7329 68.3981 93.7735Z" fill="#0A0A0B"/>
<path d="M61.2961 92.8102C61.1738 92.7697 61.0617 92.7291 60.9395 92.6885C61.0617 92.7291 61.1738 92.7697 61.2961 92.8102Z" fill="#0A0A0B"/>
<path d="M62.5086 93.0029C62.4169 92.9725 62.3252 92.942 62.2437 92.9116C62.3252 92.942 62.4169 92.9725 62.5086 93.0029Z" fill="#0A0A0B"/>
<path d="M64.2408 93.2969C64.1185 93.2564 63.9962 93.2158 63.874 93.1752C63.9962 93.2158 64.1185 93.2564 64.2408 93.2969Z" fill="#0A0A0B"/>
<path d="M65.9424 93.52C65.8303 93.4896 65.7182 93.4591 65.596 93.4186C65.7182 93.449 65.8303 93.4794 65.9424 93.52Z" fill="#0A0A0B"/>
<path d="M76.9265 99.0056C76.9265 97.7077 76.9571 96.4098 76.9164 95.1119C76.8858 94.392 77.0386 93.9864 77.8742 93.956C81.0532 93.8648 84.2017 93.4794 87.3299 92.9015C87.8393 92.8102 88.0839 93.0232 88.2469 93.4287C89.2964 96.1158 90.3357 98.8129 91.375 101.5C91.5788 102.027 91.263 102.179 90.8248 102.271C88.0024 102.879 85.1493 103.325 82.2658 103.589C80.8087 103.721 79.3414 103.741 77.8742 103.862C77.2017 103.913 76.9367 103.721 76.9673 103.001C77.0182 101.662 76.9877 100.324 76.9877 98.9853C76.9571 99.0056 76.9367 99.0056 76.9265 99.0056Z" fill="#EDD7C7"/>
</svg>
