<svg width="150" height="150" viewBox="0 0 150 150" fill="none" xmlns="http://www.w3.org/2000/svg">
<path d="M48.3667 105.576C48.1935 104.998 47.6229 105.018 47.1949 104.846C36.761 100.729 27.7129 94.7366 20.8657 85.7427C16.2193 79.6488 13.3052 72.8248 12.3372 65.2302C12.1334 63.6281 11.95 62.0058 12.0213 60.3733C12.1028 58.3352 13.0402 57.1489 15.0781 56.7636C15.6589 56.6521 15.8933 56.2668 16.1684 55.8814C22.5673 47.1106 30.515 40.0636 40.0522 34.8315C47.6025 30.6844 55.6419 28.0075 64.1908 26.7603C68.939 26.0708 73.6974 25.8376 78.466 26.1114C87.0149 26.6083 95.2479 28.5551 103.134 31.9316C115.138 37.0724 125.143 44.7988 133.325 54.908C133.682 55.3542 134.029 55.8003 134.375 56.2566C134.63 56.5912 134.884 56.7737 135.374 56.7839C137.636 56.8244 139.021 58.2136 138.991 60.5964C138.95 64.3379 138.339 68.0186 137.197 71.5878C133.957 81.768 127.63 89.7175 119.152 96.0953C113.446 100.384 107.129 103.487 100.414 105.829C100.006 105.971 99.3644 105.84 99.3134 106.539C98.7938 106.58 98.3557 106.539 98.1417 105.951C97.6322 104.511 97.1125 103.061 96.5419 101.642C96.2566 100.932 96.4706 100.668 97.1737 100.638C102.757 98.7418 108.137 96.3894 113.049 93.0839C121.21 87.5882 127.609 80.6526 131.002 71.2734C131.257 70.5637 131.654 69.8539 131.43 68.9413C131.012 69.2354 130.758 69.6612 130.411 69.9958C120.375 79.9124 108.688 87.1116 95.0747 91.1066C94.6162 91.2384 94.0965 91.2384 93.7603 91.6643C92.9044 91.786 92.6394 91.2283 92.4153 90.5692C91.9771 89.2511 91.5492 87.9126 89.9291 87.5375C89.3483 87.4056 89.5113 86.9291 89.4807 86.5539C89.5928 86.4931 89.6947 86.412 89.8068 86.3815C95.4211 85.0938 100.801 83.1267 105.937 80.531C106.884 80.0544 108.005 79.7908 108.637 78.7971C109.289 78.8376 109.798 78.4726 110.318 78.1684C116.666 74.4167 122.372 69.8539 127.497 64.561C127.66 64.3886 128.027 64.2568 127.844 63.9121C123.656 63.9121 119.499 63.9121 115.331 63.9121C106.273 63.9628 97.2144 64.0135 88.1561 64.0439C87.5448 64.0439 87.2391 64.196 87.3002 64.8652C87.341 65.2708 87.3104 65.6764 87.2798 66.0819C86.8519 72.2469 81.4719 78.4523 73.6669 77.9352C65.8007 77.4079 61.2766 70.8476 61.5313 65.0883C61.5619 64.3988 61.4193 64.0844 60.6143 64.0844C51.8413 64.125 43.0682 64.1351 34.2952 64.1453C30.4742 64.1453 26.6532 64.1453 22.6794 64.1453C22.8628 64.3886 22.9341 64.5103 23.036 64.6218C28.0186 70.1175 33.6431 74.8325 40.0522 78.6044C40.2356 78.716 40.419 78.9492 40.6839 78.7768L40.6636 78.7464C40.5209 79.0506 40.7349 79.1215 40.9591 79.1824C47.358 82.7515 54.1135 85.3879 61.3174 86.848C61.4804 86.8987 61.6434 86.9494 61.8065 87.0102C62.051 87.0305 62.2955 87.0609 62.5401 87.0812C62.7133 87.1319 62.8865 87.1826 63.0597 87.2434C63.3756 87.2738 63.7017 87.3043 64.0175 87.3347C64.1908 87.3854 64.364 87.4361 64.5372 87.4868C64.9346 87.5172 65.332 87.5476 65.7294 87.578C65.8822 87.7403 66.0758 87.7504 66.2694 87.72C66.9113 87.7707 67.5533 87.8112 68.1952 87.8619C68.3582 87.9025 68.5314 87.9329 68.6945 87.9735C69.4077 87.9735 70.121 87.9735 70.8342 87.9836C71.5679 88.085 71.843 88.5413 71.843 89.2409C71.8328 90.5287 71.8328 91.8063 71.843 93.094C71.8532 93.7125 71.6697 94.1181 70.9565 94.0877C70.1515 93.601 69.2243 94.037 68.3888 93.7531C68.1952 93.7125 68.0016 93.672 67.8182 93.6314C67.1966 93.5807 66.5649 93.5401 65.9433 93.4894C65.8313 93.459 65.709 93.4286 65.5969 93.388C65.1384 93.3475 64.69 93.3069 64.2315 93.2664C64.1092 93.2258 63.987 93.1852 63.8647 93.1447C63.4062 93.1447 62.9375 93.1751 62.4993 92.9723C62.4076 92.9419 62.3159 92.9115 62.2344 92.8811C61.9185 92.8506 61.6027 92.8101 61.297 92.7797C61.1747 92.7391 61.0626 92.6985 60.9404 92.658C60.4105 92.7391 59.8807 92.4248 59.3406 92.6174C58.5968 92.4552 58.8312 91.8671 58.9025 91.4514C58.9942 90.9444 59.2693 90.478 59.4323 89.9811C59.6463 89.322 59.8399 88.5717 59.2489 88.0647C58.6274 87.5273 57.853 87.3144 56.9971 87.6896C56.2125 88.0343 55.6623 88.521 55.3974 89.3727C55.1324 90.2245 54.9083 91.1877 53.7976 91.4007C53.7874 90.7315 53.1761 90.8227 52.8195 90.7112C40.4394 86.8378 29.8527 80.1152 20.8351 70.878C20.397 70.4319 19.9996 69.9553 19.5818 69.499C19.4188 69.9046 19.4493 70.1378 19.5207 70.371C20.7128 74.2342 22.496 77.8135 24.8497 81.0988C30.6271 89.1497 38.3913 94.6656 47.4497 98.4883C48.4584 98.9142 49.3347 99.705 50.5167 99.6949C50.7306 100.07 51.3726 100.141 51.1076 100.851C50.5982 102.22 50.1397 103.599 49.5283 104.927C49.2736 105.444 48.9169 105.647 48.3667 105.576ZM21.9763 58.2338C25.1758 58.3758 126.896 58.0513 127.895 57.8992C101.015 24.0024 48.6214 22.6639 21.9763 58.2338Z" fill="white"/>
<path d="M53.7968 91.4313C54.9075 91.2082 55.1316 90.245 55.3965 89.4034C55.6615 88.5516 56.2117 88.0649 56.9963 87.7202C57.8522 87.345 58.6266 87.5681 59.2481 88.0953C59.8493 88.6023 59.6455 89.3425 59.4315 90.0117C59.2685 90.5086 58.9934 90.975 58.9017 91.482C58.8304 91.8977 58.5858 92.4858 59.3398 92.6481C58.3616 95.3148 57.4446 98.0018 56.3849 100.638C56.0487 101.459 56.283 101.52 56.9555 101.693C61.2962 102.828 65.7184 103.406 70.1711 103.822C70.8945 103.893 71.078 103.67 71.0678 102.97C71.0066 100.02 70.9964 97.0588 70.9659 94.098C71.6689 94.1284 71.8523 93.7229 71.8523 93.1043C71.8422 91.8166 71.8422 90.539 71.8523 89.2513C71.8625 88.5516 71.5772 88.0953 70.8436 87.994C70.8742 86.98 70.7723 85.9457 70.9455 84.9622C71.3327 82.8126 72.1173 82.478 74.0532 82.4678C75.816 82.4476 76.6821 83.4311 76.7942 85.2055C76.8349 85.8139 76.8451 86.4223 76.8146 87.0307C76.7738 87.7303 76.9674 88.0446 77.7724 88.0345C79.4434 88.0041 81.1043 87.8419 82.755 87.6086C85.0068 87.2943 87.2485 86.909 89.4901 86.5541C89.5207 86.9394 89.3576 87.4059 89.9384 87.5377C91.5585 87.9027 91.9865 89.2513 92.4246 90.5694C92.6488 91.2386 92.9137 91.7862 93.7696 91.6645C94.9108 94.6557 96.0419 97.6469 97.1831 100.628C96.48 100.648 96.266 100.922 96.5513 101.632C97.1219 103.051 97.6314 104.491 98.1511 105.941C98.365 106.529 98.8134 106.58 99.3228 106.529C100.79 110.433 102.257 114.347 103.725 118.251C104.112 119.275 104.407 120.339 104.845 121.343C105.243 122.225 105.518 123.016 104.815 123.888C104.04 124.841 102.95 124.994 101.921 124.892C100.484 124.74 99.547 123.858 99.0477 122.428C97.4276 117.805 95.7464 113.211 94.0855 108.608C93.841 107.939 93.5047 107.766 92.7099 107.939C87.9719 108.993 83.1931 109.754 78.3226 109.744C77.2527 109.744 76.9776 110.098 76.9878 111.163C77.0591 117.054 77.0387 122.945 77.0489 128.837C77.0489 130.297 76.3662 131.341 75.1741 131.797C73.9717 132.254 72.8101 131.889 71.7708 130.824C71.1289 130.165 71.1289 129.374 71.1187 128.573C71.1085 122.722 71.078 116.872 71.1289 111.021C71.1391 110.038 70.9149 109.774 69.8858 109.713C64.9643 109.429 60.0938 108.699 55.3252 107.391C54.2961 107.107 53.8478 107.219 53.4606 108.324C52.0748 112.319 50.5974 116.284 49.0588 120.228C48.5595 121.516 48.4474 122.986 47.347 124.04C46.0835 125.247 44.0762 125.085 42.9655 124.304C42.1402 123.726 41.916 122.874 42.293 121.871C44.1577 116.882 45.9816 111.873 47.8259 106.884C47.9889 106.438 48.1825 106.012 48.3659 105.576C48.9161 105.657 49.2727 105.454 49.5173 104.927C50.1287 103.599 50.5974 102.22 51.0966 100.851C51.3616 100.131 50.7094 100.06 50.5057 99.6951C50.7706 98.9955 51.0253 98.2857 51.3208 97.5962C52.1971 95.5581 52.7575 93.3984 53.7968 91.4313ZM76.9266 99.0056C76.9368 99.0056 76.9572 99.0056 76.9674 99.0056C76.9674 100.344 77.0082 101.682 76.947 103.021C76.9165 103.741 77.1814 103.933 77.8539 103.883C79.3109 103.771 80.7884 103.741 82.2455 103.609C85.1189 103.345 87.9719 102.899 90.8045 102.291C91.2427 102.2 91.5585 102.037 91.3548 101.52C90.3154 98.8231 89.2761 96.1361 88.2266 93.4491C88.0636 93.0435 87.8292 92.8204 87.3096 92.9218C84.1815 93.4998 81.0329 93.8851 77.8539 93.9764C77.0183 93.9966 76.8757 94.4022 76.8961 95.1323C76.9572 96.4099 76.9266 97.7077 76.9266 99.0056Z" fill="white"/>
<path d="M21.9753 58.234C48.6205 22.6641 101.014 24.0025 127.894 57.8994C126.895 58.0515 25.1748 58.3861 21.9753 58.234Z" fill="#C2BFBC"/>
<path d="M89.49 86.5642C87.2484 86.9191 85.0067 87.3044 82.7549 87.6187C81.1042 87.8519 79.4433 88.004 77.7723 88.0446C76.9775 88.0649 76.7839 87.7404 76.8145 87.0408C76.845 86.4324 76.8247 85.824 76.7941 85.2156C76.6922 83.4412 75.8159 82.4678 74.0532 82.4779C72.1274 82.4982 71.3428 82.8328 70.9454 84.9723C70.762 85.9558 70.8639 86.9901 70.8435 88.004C70.1303 88.004 69.417 88.004 68.7037 87.9939C68.5611 87.8621 68.3981 87.8215 68.2045 87.8824C67.5625 87.8317 66.9206 87.7911 66.2787 87.7404C66.1258 87.5985 65.9424 87.5478 65.7386 87.5883C65.3413 87.5579 64.9439 87.5275 64.5465 87.4971C64.3733 87.4464 64.2001 87.3957 64.0268 87.345C63.711 87.3145 63.3849 87.2841 63.069 87.2537C62.8958 87.203 62.7226 87.1523 62.5494 87.0915C62.3048 87.0712 62.0603 87.0408 61.8157 87.0205C61.6527 86.9698 61.4897 86.9191 61.3267 86.8583C54.1228 85.3982 47.3672 82.7618 40.9683 79.1927C40.9683 78.9797 41.0295 78.7263 40.6728 78.7567L40.6932 78.7871C40.7747 78.3004 40.3672 78.0773 40.1328 77.7731C37.0658 73.7173 35.028 69.2153 34.3147 64.1657C43.0877 64.1454 51.8608 64.1454 60.6338 64.1049C61.4387 64.1049 61.5814 64.4091 61.5508 65.1087C61.3063 70.868 65.8202 77.4284 73.6863 77.9556C81.4914 78.4829 86.8713 72.2673 87.2993 66.1024C87.3299 65.6968 87.3604 65.2912 87.3197 64.8856C87.2484 64.2164 87.5642 64.0643 88.1756 64.0643C97.2339 64.0339 106.292 63.9832 115.351 63.9325C115.157 65.4636 114.79 66.9541 114.342 68.4345C113.17 72.2876 111.071 75.6337 108.666 78.8074C108.035 79.8011 106.914 80.0546 105.966 80.5413C100.831 83.137 95.461 85.1041 89.8365 86.3918C89.704 86.4223 89.6021 86.5034 89.49 86.5642Z" fill="#555859"/>
<path d="M97.1727 100.648C96.0315 97.657 94.9005 94.6658 93.7593 91.6848C94.0955 91.2589 94.6152 91.2589 95.0737 91.1271C108.697 87.1219 120.374 79.9228 130.421 70.0062C130.767 69.6716 131.022 69.2457 131.439 68.9517C131.664 69.8642 131.266 70.574 131.012 71.2838C127.618 80.663 121.23 87.5985 113.058 93.0942C108.136 96.3997 102.767 98.742 97.1727 100.648Z" fill="#C2BFBC"/>
<path d="M53.7967 91.4312C52.7574 93.3983 52.1969 95.5581 51.3207 97.586C51.0252 98.2755 50.7806 98.9853 50.5055 99.6849C49.3235 99.6951 48.4473 98.9042 47.4385 98.4783C38.3904 94.6557 30.6159 89.1498 24.8386 81.0888C22.4848 77.8035 20.7017 74.2242 19.5095 70.361C19.4382 70.138 19.4178 69.8946 19.5707 69.489C19.9884 69.9554 20.3858 70.432 20.8239 70.868C29.8415 80.1052 40.4384 86.838 52.8083 90.7417C53.1751 90.8634 53.7865 90.762 53.7967 91.4312Z" fill="#C2BFBC"/>
<path d="M70.9658 94.1183C70.9964 97.0791 71.0066 100.03 71.0677 102.991C71.0779 103.68 70.8945 103.903 70.171 103.842C65.7183 103.427 61.2961 102.849 56.9555 101.713C56.283 101.541 56.0486 101.48 56.3849 100.658C57.4547 98.0322 58.3718 95.3351 59.3398 92.6683C59.8798 92.4757 60.3995 92.79 60.9395 92.7089C61.0618 92.7494 61.1738 92.79 61.2961 92.8306C61.612 92.861 61.9279 92.9015 62.2335 92.9319C62.3252 92.9624 62.4169 92.9928 62.4985 93.0232C62.9366 93.226 63.3951 93.1956 63.8638 93.1956C63.9861 93.2361 64.1084 93.2767 64.2306 93.3173C64.6892 93.3578 65.1375 93.3984 65.596 93.4389C65.7081 93.4694 65.8304 93.4998 65.9425 93.5403C66.564 93.591 67.1957 93.6316 67.8173 93.6823C67.9905 93.8242 68.1841 93.8547 68.3879 93.804C69.2336 94.0676 70.1608 93.6316 70.9658 94.1183Z" fill="#C2BFBC"/>
<path d="M108.646 78.8175C111.051 75.6337 113.15 72.2977 114.321 68.4446C114.77 66.9642 115.137 65.4737 115.33 63.9426C119.498 63.9426 123.655 63.9426 127.843 63.9426C128.026 64.2874 127.659 64.4091 127.496 64.5916C122.381 69.8845 116.675 74.4473 110.317 78.199C109.808 78.493 109.298 78.8479 108.646 78.8175Z" fill="#FBFBFC"/>
<path d="M34.3145 64.1758C35.0278 69.2253 37.0656 73.7273 40.1326 77.7832C40.367 78.0874 40.7746 78.3105 40.693 78.7972C40.4179 78.9797 40.2447 78.7363 40.0613 78.6248C33.6522 74.8528 28.0277 70.1379 23.0451 64.6422C22.9432 64.5307 22.8719 64.409 22.6885 64.1656C26.6725 64.1758 30.4935 64.1758 34.3145 64.1758Z" fill="#FBFCFC"/>
<path d="M40.6728 78.7769C41.0294 78.7465 40.9683 79.0102 40.9683 79.213C40.7441 79.1521 40.5301 79.0811 40.6728 78.7769Z" fill="#FBFCFC"/>
<path d="M61.3267 86.8785C61.4897 86.9292 61.6527 86.9799 61.8158 87.0408C61.6527 86.9901 61.4897 86.9292 61.3267 86.8785Z" fill="white"/>
<path d="M62.5493 87.1117C62.7225 87.1624 62.8957 87.2232 63.069 87.2739C62.8957 87.2232 62.7225 87.1624 62.5493 87.1117Z" fill="white"/>
<path d="M64.0166 87.3652C64.1898 87.4159 64.363 87.4666 64.5363 87.5173C64.3732 87.4666 64.2 87.4159 64.0166 87.3652Z" fill="white"/>
<path d="M65.7385 87.6086C65.9423 87.5579 66.1257 87.6086 66.2786 87.7607C66.0748 87.7708 65.8812 87.7708 65.7385 87.6086Z" fill="white"/>
<path d="M68.2043 87.8925C68.3979 87.8316 68.561 87.8823 68.7036 88.004C68.5406 87.9634 68.3674 87.933 68.2043 87.8925Z" fill="white"/>
<path d="M68.398 93.7735C68.184 93.8344 67.9904 93.7938 67.8274 93.6519C68.0108 93.7026 68.2044 93.733 68.398 93.7735Z" fill="white"/>
<path d="M61.2961 92.8102C61.1738 92.7696 61.0617 92.729 60.9395 92.6885C61.0617 92.729 61.1738 92.7696 61.2961 92.8102Z" fill="white"/>
<path d="M62.5086 93.0029C62.4169 92.9725 62.3252 92.942 62.2437 92.9116C62.3252 92.942 62.4169 92.9725 62.5086 93.0029Z" fill="white"/>
<path d="M64.2408 93.297C64.1186 93.2564 63.9963 93.2159 63.874 93.1753C63.9963 93.2159 64.1186 93.2564 64.2408 93.297Z" fill="white"/>
<path d="M65.9424 93.52C65.8303 93.4896 65.7182 93.4591 65.5959 93.4186C65.7182 93.449 65.8303 93.4794 65.9424 93.52Z" fill="white"/>
<path d="M76.9266 99.0056C76.9266 97.7077 76.9572 96.4099 76.9164 95.112C76.8858 94.3921 77.0387 93.9865 77.8742 93.9561C81.0533 93.8648 84.2018 93.4795 87.3299 92.9015C87.8394 92.8103 88.0839 93.0232 88.247 93.4288C89.2965 96.1158 90.3358 98.813 91.3751 101.5C91.5789 102.027 91.263 102.179 90.8249 102.271C88.0024 102.879 85.1494 103.325 82.2658 103.589C80.8087 103.721 79.3415 103.741 77.8742 103.863C77.2017 103.913 76.9368 103.721 76.9674 103.001C77.0183 101.662 76.9877 100.324 76.9877 98.9853C76.9572 99.0056 76.9368 99.0056 76.9266 99.0056Z" fill="#C2BFBC"/>
</svg>
