<svg width="541" height="600" viewBox="0 0 541 600" fill="none" xmlns="http://www.w3.org/2000/svg">
<path d="M276.933 552.449C252.871 552.374 230.101 548.432 208.265 540.343C193.021 534.712 178.966 527.28 166.203 518.008C150.875 506.878 138.303 493.664 128.636 478.33C120.664 465.699 115.194 452.241 112.29 437.995C111.166 432.477 110.53 426.903 110.191 421.291C109.916 416.58 109.958 411.906 110.318 407.214C111.23 395.296 113.901 383.678 118.502 372.435C127.597 350.213 142.437 331.519 162.514 316.015C167.03 312.543 171.8 309.352 176.633 306.256C178.224 305.242 179.92 304.792 181.806 304.679C186.958 304.36 191.241 302.333 195.014 299.349C201.268 294.375 205.339 288.05 208.752 281.368C213.819 271.401 217.042 260.928 219.607 250.268C221.727 241.54 223.232 232.718 224.441 223.859C225.289 217.572 225.946 211.284 226.455 204.978C226.9 199.141 227.239 193.303 227.557 187.448C228.214 175.135 228.108 162.823 227.981 150.491C227.918 143.509 227.536 136.546 227.176 129.564C226.9 124.121 226.561 118.678 226.094 113.254C225.458 105.952 224.907 98.6324 223.995 91.3501C223.805 89.7922 223.656 88.2344 223.529 86.6766C223.487 86.076 223.126 85.8507 222.554 85.5504C218.78 83.6735 215.282 81.4775 212.823 78.2117C209.113 73.2942 209.473 67.9075 213.734 63.3654C216.702 60.1747 220.476 57.9412 224.589 56.083C233.557 52.0665 243.161 50.0019 253.019 48.613C261.499 47.4305 270.022 46.9237 278.587 46.9988C285.965 47.0739 293.321 47.5431 300.614 48.5566C309.2 49.7579 317.596 51.5972 325.503 54.9006C329.913 56.7399 334.005 59.011 337.1 62.4457C341.679 67.5134 341.595 73.4256 336.867 78.4557C334.514 80.952 331.63 82.8852 328.472 84.4806C327.73 84.856 327.39 85.2313 327.327 86.0196C326.775 91.8005 326.055 97.5814 325.525 103.362C325.058 108.467 324.761 113.591 324.359 118.715C323.617 128.607 323.214 138.498 322.917 148.389C322.62 158.055 322.705 167.74 322.811 177.406C322.875 183.544 323.193 189.681 323.617 195.8C324.062 202.557 324.655 209.295 325.397 216.033C326.733 227.914 328.578 239.701 331.44 251.375C334.365 263.274 338.118 274.949 344.478 285.835C346.98 290.114 349.948 294.131 353.743 297.641C358.216 301.789 363.495 304.491 370.109 304.829C371.827 304.923 373.332 305.542 374.731 306.406C393.345 317.874 408.8 332.007 420.567 349.218C430.043 363.051 436.467 377.935 439.732 393.907C441.725 403.667 442.403 413.483 441.809 423.356C440.834 439.122 436.637 454.231 429.322 468.645C420.439 486.157 407.846 501.247 391.776 514.085C379.565 523.845 365.954 531.709 351.05 537.884C337.164 543.646 322.641 547.663 307.568 550.047C300.975 551.098 294.339 551.736 287.661 552.13C283.908 552.336 280.198 552.186 276.933 552.449ZM292.197 526.416C299.003 526.323 307.547 525.741 316.027 524.371C330.804 522.006 344.817 517.708 357.877 511.138C380.074 499.99 397.013 484.411 407.973 463.897C414.185 452.279 417.641 440.004 418.637 427.184C419.295 418.757 418.68 410.367 417.09 402.034C414.461 388.408 409.097 375.682 401.274 363.764C392.073 349.725 380.116 337.806 365.742 327.746C364.703 327.014 364.067 327.033 363.007 327.69C343.884 339.402 323.659 349.274 301.505 355.806C289.378 359.372 276.976 361.812 264.213 362.675C255.754 363.257 247.295 363.069 238.857 362.056C228.829 360.836 219.162 358.49 209.897 354.867C197.431 349.987 186.471 343.137 176.803 334.672C176.252 334.184 175.913 333.79 175.128 334.54C166.224 342.987 159.016 352.427 153.695 362.994C147.589 375.1 144.282 387.788 143.688 401.058C143.285 410.086 144.154 419.001 146.296 427.804C150.514 445.109 158.931 460.744 171.121 474.745C185.877 491.694 204.321 504.588 226.158 513.653C246.51 522.1 267.923 526.341 292.197 526.416ZM116.572 416.28C116.488 418.851 116.488 422.229 116.869 425.552C117.336 429.493 117.866 433.416 118.693 437.301C119.689 442.012 120.897 446.648 122.487 451.228C124.099 455.826 125.985 460.312 128.148 464.723C130.883 470.297 134.02 475.665 137.688 480.789C141.441 486.044 145.49 491.093 150.006 495.879C153.101 499.145 156.366 502.261 159.758 505.264C162.768 507.966 165.97 510.5 169.298 512.921C172.711 515.418 176.209 517.82 179.814 520.054C187.446 524.783 195.46 528.95 203.897 532.46C207.395 533.905 210.915 535.257 214.498 536.514C219.904 538.429 225.416 540.061 231.034 541.375C239.726 543.402 248.524 545.017 257.492 545.786C262.665 546.236 267.817 546.706 273.011 546.687C277.06 546.687 281.131 546.818 285.18 546.518C288.615 546.274 292.028 546.068 295.462 545.767C299.787 545.373 304.049 544.754 308.31 544.078C315.37 542.971 322.26 541.357 329.086 539.461C334.471 537.959 339.708 536.101 344.881 534.13C350.774 531.878 356.456 529.288 361.968 526.398C367.798 523.338 373.395 519.979 378.759 516.262C383.338 513.09 387.706 509.731 391.903 506.202C395.359 503.312 398.518 500.158 401.613 496.93C404.984 493.402 408.143 489.742 411.09 485.913C415.203 480.582 418.807 475.008 421.945 469.171C424.319 464.76 426.439 460.256 428.199 455.638C430.806 448.769 432.693 441.768 433.965 434.598C434.771 429.981 435.258 425.364 435.47 420.728C435.704 415.923 435.577 411.081 435.025 406.276C434.601 402.522 434.071 398.787 433.372 395.071C432.46 390.266 431.188 385.555 429.598 380.9C427.754 375.476 425.485 370.202 422.814 365.059C419.655 359.015 416.03 353.216 411.874 347.66C407.443 341.729 402.461 336.155 397.013 330.937C394.172 328.215 391.14 325.625 388.045 323.11C383.868 319.713 379.501 316.579 374.985 313.557C372.505 311.905 370.088 310.253 366.675 310.141C362.88 310.009 359.445 308.545 356.265 306.8C352.386 304.66 349.142 301.901 346.259 298.748C342.697 294.844 339.877 290.565 337.397 286.098C334.005 279.96 331.503 273.522 329.256 266.991C327.645 262.317 326.288 257.569 325.164 252.783C323.871 247.321 322.684 241.84 321.793 236.322C321.179 232.606 320.606 228.89 319.97 225.173C319.483 222.339 319.186 219.468 318.868 216.615C318.465 212.805 318.041 208.994 317.808 205.166C317.659 202.744 317.405 200.342 317.278 197.939C317.087 194.599 316.981 191.276 316.705 187.936C316.514 185.664 316.493 183.393 316.493 181.122C316.514 169.185 316.133 157.229 316.663 145.292C316.854 140.675 316.938 136.058 317.214 131.441C317.405 128.306 317.553 125.172 317.765 122.037C317.956 119.26 318.083 116.501 318.338 113.723C318.592 110.87 318.635 108.017 318.953 105.164C319.08 104.019 319.08 102.874 319.207 101.729C319.525 98.426 319.907 95.1414 320.288 91.8381C320.543 89.567 320.776 87.2959 321.115 85.0249C321.263 84.0301 320.839 83.5421 319.801 83.3544C318.295 83.0917 316.705 82.9978 315.285 82.5286C314.098 82.1345 313.928 82.6975 313.78 83.3357C313.016 86.7329 312.253 90.1488 311.596 93.5648C310.642 98.6137 309.667 103.663 308.882 108.749C308.204 113.216 307.419 117.683 306.911 122.169C306.465 126.204 305.766 130.202 305.321 134.237C305.024 136.94 304.748 139.662 304.515 142.383C304.218 145.893 303.921 149.421 303.709 152.931C303.497 156.141 303.285 159.35 303.179 162.579C303.052 166.088 302.883 169.598 302.904 173.108C302.925 178.701 302.565 184.313 303.116 189.906C303.349 192.327 303.201 194.767 303.328 197.189C303.497 200.886 303.858 204.565 303.985 208.262C304.07 210.271 304.282 212.298 304.536 214.287C304.981 217.647 305.342 221.007 305.787 224.366C306.232 227.595 306.677 230.842 307.271 234.051C308.055 238.274 308.925 242.497 309.879 246.701C311.363 253.252 313.228 259.727 315.391 266.127C317.765 273.185 320.733 280.054 324.295 286.717C326.033 289.945 327.963 293.08 330.083 296.12C333.03 300.381 336.358 304.379 340.217 308.001C343.842 311.379 347.87 314.307 352.534 316.579C355.82 318.174 359.191 319.469 362.901 320.126C364.258 320.37 365.636 320.576 366.802 321.421C370.046 323.805 373.395 326.076 376.554 328.572C380.158 331.444 383.656 334.409 386.964 337.544C390.653 341.035 394.108 344.695 397.352 348.505C401.274 353.103 404.815 357.927 407.973 362.976C411.641 368.813 414.8 374.875 417.323 381.163C420.397 388.839 422.708 396.666 423.916 404.774C424.637 409.56 425.082 414.365 425.188 419.189C425.231 421.141 425.146 423.074 425.019 425.045C424.807 428.048 424.51 431.032 424.171 434.016C423.768 437.526 423.068 440.998 422.178 444.414C420.227 451.903 417.471 459.186 413.761 466.13C409.945 473.281 405.366 480.057 399.811 486.307C395.444 491.243 390.822 495.935 385.543 500.14C382.702 502.411 379.777 504.588 376.766 506.69C370.639 510.969 364.046 514.611 357.135 517.82C349.248 521.48 341.001 524.352 332.457 526.623C328.048 527.805 323.574 528.763 319.08 529.57C315.221 530.245 311.32 530.715 307.398 531.109C302.013 531.653 296.607 531.878 291.201 532.01C288.827 532.066 286.452 531.972 284.056 531.859C280.452 531.672 276.848 531.409 273.244 531.109C269.216 530.771 265.23 530.245 261.287 529.57C253.973 528.312 246.786 526.623 239.726 524.464C234.384 522.831 229.126 521.048 224.038 518.909C215.303 515.249 206.887 511.045 199 506.052C192.958 502.223 187.234 498.056 181.806 493.571C177.312 489.854 173.157 485.838 169.277 481.577C165.864 477.842 162.641 473.994 159.652 469.959C155.179 463.934 151.384 457.609 148.14 451.002C144.875 444.339 142.331 437.47 140.487 430.394C139.511 426.621 138.769 422.83 138.239 418.964C137.667 414.759 137.285 410.536 137.201 406.313C137.137 401.94 137.476 397.586 137.985 393.231C138.409 389.684 139.066 386.193 139.872 382.702C141.695 374.8 144.515 367.199 148.352 359.897C151.193 354.454 154.479 349.237 158.316 344.282C162.705 338.595 167.623 333.339 173.029 328.422C174.047 327.483 175.255 327.033 176.633 326.845C177.376 326.751 178.16 326.676 178.86 326.526C187.446 324.856 194.824 321.139 201.268 315.922C203.961 313.744 206.441 311.398 208.773 308.883C213.459 303.872 217.232 298.354 220.667 292.648C223.317 288.237 225.522 283.62 227.578 278.965C229.804 273.954 231.734 268.849 233.408 263.687C235.168 258.244 236.631 252.726 238.03 247.189C238.836 244.036 239.472 240.845 240.044 237.636C240.489 235.083 240.956 232.531 241.422 229.997C241.91 227.369 242.355 224.742 242.694 222.095C243.034 219.561 243.288 216.99 243.606 214.456C243.988 211.359 244.242 208.262 244.581 205.166C244.836 202.838 245.048 200.511 245.132 198.183C245.302 194.279 245.662 190.394 245.662 186.49C245.662 177.763 245.98 169.035 245.493 160.289C245.281 156.516 245.238 152.744 244.942 148.952C244.751 146.381 244.581 143.81 244.39 141.238C244.157 138.198 243.882 135.176 243.564 132.135C243.224 128.869 242.885 125.622 242.482 122.375C241.973 118.265 241.486 114.173 240.829 110.082C240.235 106.347 239.832 102.593 239.154 98.8764C238.242 93.79 237.161 88.7224 236.207 83.636C236.122 83.148 235.931 82.9791 235.465 83.0917C233.726 83.4858 231.988 83.8987 230.25 84.2929C229.762 84.4055 229.614 84.687 229.677 85.1C229.953 87.0519 230.271 88.9852 230.462 90.9371C230.695 93.6211 231.034 96.2863 231.267 98.9515C231.649 103.212 231.988 107.473 232.37 111.733C232.582 114.173 232.73 116.632 232.9 119.091C233.112 122.056 233.26 125.04 233.451 128.006C233.684 131.61 233.726 135.232 234.002 138.854C234.214 141.67 234.256 144.523 234.235 147.338C234.235 159.519 234.617 171.7 234.023 183.881C233.938 185.702 233.938 187.541 233.832 189.362C233.62 192.684 233.514 196.025 233.239 199.366C232.984 202.331 232.942 205.316 232.624 208.281C232.518 209.313 232.497 210.327 232.391 211.359C232.073 214.287 231.67 217.234 231.331 220.162C231.055 222.546 230.843 224.948 230.483 227.332C230.016 230.391 229.317 233.432 228.914 236.491C228.426 240.057 227.706 243.605 226.921 247.133C225.352 254.134 223.593 261.116 221.176 267.948C218.356 275.925 215.134 283.789 210.364 291.071C206.887 296.364 202.88 301.263 197.346 305.036C193.382 307.738 189.036 309.653 184.011 310.178C181.87 310.404 179.962 310.892 178.266 312.205C176.888 313.275 175.34 314.214 173.835 315.171C169.871 317.723 166.16 320.558 162.62 323.542C159.185 326.432 155.772 329.36 152.677 332.551C150.62 334.672 148.5 336.755 146.571 338.97C143.328 342.705 140.296 346.571 137.455 350.569C135.059 353.966 132.854 357.457 130.862 361.042C128.424 365.453 126.219 369.976 124.395 374.631C122.572 379.248 121.025 383.922 119.837 388.708C118.926 392.443 118.205 396.216 117.611 400.007C117.145 403.066 116.869 406.126 116.615 409.185C116.445 411.306 116.572 413.408 116.572 416.28ZM206.463 319.713C208.392 319.319 210.321 318.906 212.25 318.512C222.511 316.428 232.836 314.683 243.245 313.369C249.733 312.543 256.22 311.867 262.75 311.361C269.598 310.816 276.467 310.328 283.336 310.253C293.512 310.122 303.709 310.047 313.886 310.91C318.571 311.304 323.235 311.699 327.878 312.355C331.122 312.806 334.344 313.294 337.715 313.782C337.482 313.519 337.312 313.331 337.143 313.181C331.906 308.583 327.581 303.365 323.829 297.753C316.536 286.848 311.575 275.08 307.737 262.918C301.844 244.224 298.96 225.117 297.455 205.822C297.052 200.623 296.777 195.424 296.671 190.207C296.48 180.578 296.501 170.95 296.946 161.321C297.031 159.482 297.052 157.624 297.201 155.803C297.646 150.529 297.879 145.255 298.494 139.981C298.939 136.152 299.194 132.323 299.681 128.513C300.317 123.501 301.059 118.509 301.759 113.516C302.543 107.886 303.561 102.274 304.642 96.6805C305.596 91.7254 306.635 86.7892 307.631 81.8154C302.247 81.1022 296.819 80.7831 291.413 80.5766C283.76 80.2951 276.128 80.1637 268.453 80.4452C260.079 80.7455 251.747 81.2335 243.458 82.1908C242.546 82.3034 242.44 82.5849 242.588 83.2606C245.048 95.1414 247.019 107.079 248.567 119.072C249.521 126.542 250.305 134.05 250.899 141.538C251.408 147.901 251.811 154.264 251.98 160.627C252.341 174.028 252.298 187.41 251.281 200.811C250.729 208 250.051 215.169 249.097 222.339C248.122 229.565 246.871 236.754 245.302 243.905C241.592 260.778 236.334 277.22 227.748 292.723C224.25 299.067 220.179 305.111 215.324 310.704C212.547 313.801 209.558 316.747 206.463 319.713ZM182.485 331.575C182.845 331.932 183.057 332.138 183.29 332.326C201.629 347.585 223.338 355.918 248.44 357.157C257.641 357.608 266.82 357.082 275.894 355.693C288.975 353.704 301.547 350.213 313.758 345.652C328.578 340.115 342.485 333.114 355.799 325.194C356.117 325.006 356.668 324.931 356.583 324.499C356.499 324.142 355.99 324.161 355.672 324.086C352.704 323.317 349.714 322.566 346.725 321.815C332.033 318.061 316.981 316.522 301.78 316.072C288.233 315.659 274.707 316.072 261.224 317.273C252.68 318.043 244.178 319.056 235.719 320.314C221.685 322.397 207.841 325.156 194.166 328.609C190.35 329.567 186.428 330.299 182.485 331.575ZM276.064 52.7797C273.117 52.7046 269.174 52.7046 265.273 53.0424C261.669 53.3615 258.043 53.6994 254.439 54.1874C250.814 54.6754 247.21 55.2197 243.691 56.008C239.133 57.0215 234.617 58.2227 230.271 59.9495C225.882 61.695 221.727 63.6657 218.653 67.0254C216.978 68.8647 216.045 70.9293 217.148 73.4069C218.208 75.7905 220.179 77.3859 222.469 78.8123C223.571 79.488 224.61 80.3702 226.073 79.9009C231.606 78.1554 237.352 77.292 243.139 76.5601C247.931 75.9594 252.765 75.6028 257.577 75.1899C261.096 74.8896 264.658 74.7582 268.177 74.7207C274.855 74.6644 281.534 74.533 288.233 74.8333C292.452 75.021 296.65 75.2838 300.868 75.3776C302.395 75.4151 303.434 74.7207 304.218 73.6133C305.193 72.2244 305.639 70.6666 305.787 69.09C306.19 64.8106 305.151 60.7378 302.777 57.0027C301.886 55.595 300.932 54.0747 298.685 54.0372C298.155 54.0184 297.604 54.0372 297.074 53.9434C292.791 53.1363 288.424 53.0988 284.078 52.7797C281.767 52.6295 279.392 52.7797 276.064 52.7797ZM319.461 67.6823C319.716 67.2881 319.207 66.7438 319.143 66.162C318.931 63.647 317.914 61.3196 316.599 59.1236C316.133 58.3541 315.751 57.3593 314.543 57.0966C313.356 56.8338 312.19 56.5523 311.002 56.252C310.472 56.1018 309.815 55.9704 309.476 56.252C309.052 56.6086 309.54 57.1153 309.752 57.5282C311.363 60.719 311.999 64.1162 312.02 67.5321C312.02 70.1973 311.596 72.9001 310.112 75.3401C309.73 75.9594 309.773 76.2785 310.748 76.3911C311.872 76.5225 312.995 76.729 314.14 76.8416C314.734 76.8979 315.136 76.6727 315.539 76.3161C318.359 74.0638 319.228 71.117 319.461 67.6823ZM334.132 70.0472C333.962 69.5217 333.814 68.7334 333.496 68.0389C332.5 65.8429 330.592 64.3039 328.514 62.9337C327.539 62.2956 326.458 61.7701 325.376 61.2445C325.122 61.1131 324.655 61.0944 324.422 61.2257C324.253 61.3196 324.401 61.695 324.486 61.9765C324.846 63.3842 325.27 64.7919 325.397 66.2183C325.758 69.9346 324.973 73.4632 322.938 76.7665C322.005 78.3056 322.069 78.268 323.956 78.8874C325.207 79.3003 326.245 79.3566 327.327 78.4745C328.196 77.7613 329.298 77.292 330.168 76.5788C332.245 74.8521 333.878 72.9001 334.132 70.0472Z" fill="white"/>
<path d="M292.197 526.418C267.923 526.342 246.489 522.101 226.158 513.655C204.321 504.57 185.877 491.676 171.121 474.746C158.931 460.726 150.514 445.11 146.295 427.805C144.154 419.002 143.285 410.087 143.688 401.059C144.26 387.789 147.589 375.102 153.694 362.996C159.016 352.447 166.224 342.988 175.128 334.542C175.912 333.791 176.252 334.204 176.803 334.673C186.492 343.138 197.431 349.989 209.897 354.869C219.162 358.491 228.829 360.837 238.857 362.057C247.295 363.071 255.732 363.258 264.213 362.677C276.975 361.813 289.378 359.392 301.504 355.807C323.659 349.275 343.884 339.422 363.007 327.691C364.067 327.034 364.724 327.034 365.742 327.747C380.095 337.808 392.052 349.726 401.274 363.765C409.097 375.683 414.461 388.409 417.089 402.035C418.701 410.369 419.294 418.758 418.637 427.186C417.641 439.986 414.185 452.261 407.973 463.898C397.013 484.412 380.073 499.991 357.876 511.14C344.817 517.69 330.803 522.007 316.027 524.372C307.546 525.742 299.003 526.324 292.197 526.418ZM242.206 452.636C242.418 439.817 230.737 429.438 216.299 429.494C201.714 429.569 190.35 439.536 190.35 452.655C190.35 465.193 201.798 474.99 215.303 475.46C230.737 476.004 242.503 464.649 242.206 452.636ZM224.525 406.333C224.928 412.321 229.147 416.6 235.91 416.637C241.994 416.675 247.04 412.508 247.04 406.84C247.019 400.89 242.524 396.573 235.677 396.461C229.719 396.367 224.525 401.059 224.525 406.333ZM175.043 388.728C174.789 393.176 178.944 396.517 183.757 396.386C188.463 396.273 192.067 393.157 192.11 388.765C192.152 384.355 188.421 381.108 183.545 381.108C178.711 381.108 174.852 384.336 175.043 388.728Z" fill="#D3D3D3"/>
<path d="M116.572 416.281C116.572 413.409 116.424 411.326 116.614 409.243C116.869 406.183 117.144 403.124 117.611 400.064C118.183 396.273 118.904 392.501 119.837 388.766C121.024 383.979 122.572 379.306 124.395 374.689C126.24 370.034 128.423 365.511 130.861 361.1C132.854 357.515 135.038 354.005 137.455 350.627C140.295 346.629 143.327 342.763 146.571 339.028C148.5 336.813 150.62 334.729 152.677 332.609C155.772 329.418 159.185 326.49 162.62 323.599C166.16 320.615 169.87 317.781 173.835 315.228C175.34 314.271 176.888 313.333 178.266 312.263C179.983 310.949 181.87 310.461 184.011 310.236C189.035 309.71 193.382 307.777 197.346 305.093C202.901 301.321 206.886 296.422 210.363 291.129C215.133 283.847 218.356 276.001 221.175 268.005C223.592 261.192 225.331 254.21 226.921 247.191C227.705 243.681 228.426 240.133 228.914 236.549C229.338 233.489 230.016 230.449 230.482 227.389C230.843 225.006 231.034 222.603 231.33 220.22C231.691 217.292 232.072 214.345 232.39 211.417C232.496 210.403 232.518 209.371 232.624 208.339C232.942 205.373 232.963 202.389 233.238 199.423C233.535 196.101 233.62 192.76 233.832 189.42C233.959 187.58 233.938 185.76 234.023 183.939C234.617 171.758 234.235 159.577 234.235 147.396C234.235 144.58 234.193 141.727 234.002 138.912C233.747 135.29 233.705 131.686 233.45 128.063C233.26 125.098 233.111 122.114 232.899 119.148C232.73 116.689 232.581 114.249 232.369 111.791C232.009 107.53 231.648 103.27 231.267 99.009C231.034 96.3438 230.716 93.6598 230.461 90.9946C230.292 89.0427 229.952 87.1094 229.677 85.1575C229.613 84.7445 229.762 84.463 230.249 84.3504C231.988 83.9562 233.726 83.5433 235.465 83.1492C235.931 83.0366 236.122 83.2055 236.207 83.6935C237.161 88.7799 238.242 93.8475 239.153 98.9339C239.811 102.65 240.235 106.404 240.828 110.139C241.485 114.231 241.973 118.322 242.482 122.433C242.885 125.68 243.224 128.946 243.563 132.193C243.881 135.233 244.157 138.255 244.39 141.296C244.581 143.867 244.75 146.438 244.941 149.01C245.217 152.782 245.28 156.555 245.492 160.346C245.98 169.074 245.662 177.82 245.662 186.548C245.662 190.433 245.28 194.337 245.132 198.241C245.026 200.568 244.835 202.914 244.581 205.223C244.242 208.32 244.008 211.417 243.606 214.514C243.288 217.048 243.012 219.619 242.694 222.153C242.355 224.799 241.909 227.427 241.422 230.054C240.955 232.607 240.51 235.141 240.044 237.693C239.471 240.903 238.835 244.094 238.03 247.247C236.631 252.765 235.189 258.302 233.408 263.745C231.733 268.906 229.804 274.012 227.578 279.023C225.5 283.678 223.317 288.295 220.667 292.706C217.232 298.411 213.437 303.929 208.773 308.941C206.441 311.437 203.961 313.802 201.268 315.979C194.823 321.197 187.445 324.913 178.859 326.584C178.138 326.715 177.375 326.79 176.633 326.903C175.255 327.09 174.068 327.541 173.029 328.479C167.623 333.397 162.704 338.652 158.316 344.339C154.479 349.313 151.193 354.531 148.352 359.955C144.536 367.256 141.716 374.858 139.871 382.759C139.066 386.25 138.409 389.742 137.985 393.289C137.476 397.643 137.137 401.998 137.2 406.371C137.264 410.613 137.667 414.817 138.239 419.021C138.769 422.869 139.49 426.679 140.486 430.452C142.331 437.527 144.875 444.397 148.14 451.06C151.383 457.667 155.178 463.992 159.652 470.017C162.641 474.033 165.863 477.881 169.277 481.635C173.156 485.877 177.29 489.912 181.806 493.628C187.233 498.114 192.936 502.281 199 506.11C206.886 511.102 215.282 515.306 224.037 518.966C229.126 521.106 234.405 522.889 239.726 524.522C246.786 526.68 253.973 528.37 261.287 529.627C265.23 530.303 269.216 530.828 273.244 531.166C276.848 531.467 280.452 531.711 284.056 531.917C286.452 532.048 288.826 532.123 291.201 532.067C296.607 531.955 302.013 531.711 307.398 531.166C311.32 530.772 315.221 530.303 319.079 529.627C323.574 528.82 328.047 527.863 332.457 526.68C340.979 524.409 349.248 521.538 357.134 517.878C364.024 514.668 370.618 511.046 376.766 506.748C379.776 504.646 382.681 502.468 385.543 500.197C390.822 495.993 395.422 491.301 399.811 486.365C405.344 480.114 409.924 473.339 413.761 466.188C417.471 459.243 420.227 451.961 422.177 444.472C423.068 441.056 423.767 437.584 424.17 434.074C424.509 431.09 424.806 428.105 425.018 425.102C425.167 423.15 425.251 421.198 425.188 419.246C425.061 414.423 424.637 409.637 423.916 404.832C422.707 396.724 420.397 388.897 417.323 381.22C414.8 374.933 411.641 368.87 407.973 363.033C404.814 357.984 401.274 353.161 397.352 348.562C394.087 344.752 390.631 341.111 386.963 337.601C383.656 334.448 380.158 331.501 376.554 328.63C373.395 326.133 370.045 323.862 366.802 321.479C365.657 320.634 364.258 320.427 362.901 320.183C359.212 319.527 355.841 318.231 352.534 316.636C347.891 314.365 343.842 311.437 340.216 308.059C336.337 304.436 333.008 300.438 330.082 296.178C327.984 293.137 326.033 290.003 324.295 286.775C320.733 280.112 317.765 273.242 315.39 266.185C313.228 259.785 311.384 253.328 309.878 246.759C308.924 242.555 308.055 238.332 307.271 234.109C306.677 230.899 306.232 227.652 305.787 224.424C305.341 221.064 304.981 217.704 304.536 214.345C304.26 212.355 304.048 210.328 303.985 208.32C303.836 204.622 303.476 200.944 303.327 197.246C303.221 194.806 303.37 192.385 303.115 189.964C302.564 184.371 302.925 178.759 302.903 173.166C302.882 169.656 303.073 166.146 303.179 162.636C303.285 159.427 303.497 156.198 303.709 152.989C303.942 149.479 304.218 145.95 304.515 142.441C304.748 139.719 305.023 137.016 305.32 134.295C305.744 130.259 306.465 126.262 306.91 122.226C307.398 117.722 308.182 113.273 308.882 108.806C309.666 103.739 310.62 98.6899 311.596 93.6223C312.253 90.2063 313.016 86.7904 313.779 83.3932C313.928 82.755 314.097 82.192 315.284 82.5861C316.705 83.0553 318.295 83.1492 319.8 83.4119C320.839 83.5996 321.263 84.0876 321.115 85.0824C320.775 87.3534 320.542 89.6245 320.288 91.8956C319.927 95.1989 319.546 98.4835 319.207 101.787C319.101 102.932 319.101 104.077 318.952 105.222C318.634 108.056 318.613 110.927 318.337 113.78C318.083 116.558 317.956 119.317 317.765 122.095C317.553 125.229 317.404 128.364 317.214 131.498C316.938 136.115 316.874 140.733 316.662 145.35C316.154 157.287 316.514 169.243 316.493 181.18C316.493 183.432 316.514 185.722 316.705 187.993C316.98 191.315 317.086 194.656 317.277 197.997C317.404 200.399 317.659 202.821 317.807 205.223C318.062 209.052 318.465 212.862 318.867 216.672C319.164 219.525 319.482 222.397 319.97 225.231C320.585 228.947 321.178 232.663 321.793 236.38C322.705 241.917 323.871 247.397 325.164 252.84C326.309 257.626 327.644 262.375 329.256 267.048C331.503 273.58 333.983 280.018 337.397 286.155C339.877 290.622 342.697 294.92 346.258 298.805C349.142 301.959 352.385 304.737 356.265 306.857C359.445 308.603 362.88 310.067 366.674 310.198C370.088 310.33 372.505 311.963 374.985 313.614C379.501 316.617 383.868 319.771 388.045 323.168C391.14 325.683 394.172 328.273 397.012 330.994C402.461 336.212 407.422 341.787 411.874 347.718C416.029 353.273 419.676 359.073 422.813 365.117C425.485 370.259 427.753 375.533 429.598 380.958C431.188 385.612 432.46 390.323 433.371 395.128C434.071 398.845 434.601 402.58 435.025 406.333C435.555 411.157 435.703 415.981 435.47 420.785C435.237 425.421 434.771 430.039 433.965 434.656C432.693 441.826 430.806 448.826 428.198 455.696C426.439 460.332 424.319 464.818 421.944 469.228C418.807 475.047 415.202 480.64 411.09 485.97C408.143 489.781 405.005 493.459 401.613 496.988C398.539 500.197 395.359 503.351 391.903 506.26C387.684 509.788 383.338 513.148 378.759 516.32C373.416 520.036 367.798 523.396 361.968 526.455C356.477 529.346 350.774 531.955 344.88 534.188C339.686 536.159 334.45 537.998 329.086 539.519C322.281 541.433 315.369 543.047 308.309 544.136C304.048 544.811 299.787 545.431 295.462 545.825C292.049 546.125 288.614 546.332 285.18 546.576C281.109 546.857 277.06 546.726 273.011 546.745C267.817 546.763 262.665 546.275 257.492 545.844C248.524 545.074 239.726 543.46 231.034 541.433C225.415 540.119 219.903 538.467 214.497 536.572C210.914 535.314 207.395 533.963 203.897 532.518C195.459 529.008 187.445 524.841 179.813 520.111C176.188 517.859 172.711 515.457 169.298 512.979C165.969 510.558 162.768 508.024 159.758 505.321C156.387 502.299 153.122 499.203 150.005 495.937C145.468 491.169 141.419 486.102 137.688 480.846C134.041 475.723 130.882 470.355 128.148 464.78C125.985 460.369 124.077 455.884 122.487 451.285C120.897 446.724 119.689 442.07 118.692 437.359C117.865 433.455 117.314 429.532 116.869 425.609C116.487 422.212 116.487 418.852 116.572 416.281Z" fill="#BEBEBE"/>
<path d="M206.462 319.714C209.558 316.73 212.547 313.802 215.282 310.649C220.158 305.056 224.207 299.012 227.705 292.668C236.292 277.165 241.549 260.723 245.259 243.85C246.828 236.699 248.079 229.529 249.054 222.284C250.008 215.133 250.708 207.963 251.238 200.756C252.255 187.374 252.298 173.973 251.937 160.571C251.768 154.209 251.365 147.827 250.856 141.483C250.263 133.976 249.478 126.487 248.524 119.017C246.998 107.023 245.005 95.0675 242.546 83.2055C242.397 82.5298 242.503 82.2295 243.415 82.1357C251.725 81.1785 260.057 80.6905 268.41 80.3902C276.064 80.1086 283.717 80.24 291.37 80.5215C296.777 80.728 302.204 81.0471 307.589 81.7603C306.592 86.7341 305.554 91.6703 304.6 96.6254C303.518 102.219 302.501 107.83 301.716 113.461C301.017 118.454 300.253 123.446 299.639 128.458C299.151 132.268 298.897 136.115 298.451 139.926C297.858 145.181 297.625 150.474 297.158 155.748C297.01 157.587 296.989 159.427 296.904 161.266C296.459 170.894 296.437 180.523 296.628 190.151C296.734 195.351 297.01 200.568 297.413 205.767C298.918 225.062 301.801 244.188 307.695 262.863C311.532 275.025 316.493 286.774 323.786 297.698C327.538 303.31 331.863 308.528 337.1 313.126C337.291 313.295 337.439 313.483 337.672 313.727C334.301 313.239 331.058 312.751 327.835 312.3C323.192 311.643 318.528 311.249 313.843 310.855C303.667 309.992 293.49 310.067 283.293 310.198C276.424 310.292 269.555 310.761 262.707 311.306C256.178 311.831 249.69 312.507 243.203 313.314C232.793 314.628 222.469 316.373 212.208 318.457C210.321 318.907 208.392 319.32 206.462 319.714Z" fill="#F0F0F0"/>
<path d="M182.484 331.576C186.428 330.3 190.329 329.568 194.166 328.592C207.84 325.138 221.684 322.379 235.719 320.296C244.199 319.038 252.679 318.006 261.223 317.255C274.707 316.054 288.254 315.641 301.78 316.054C316.98 316.505 332.033 318.044 346.725 321.798C349.714 322.548 352.682 323.299 355.671 324.069C355.989 324.144 356.519 324.125 356.583 324.481C356.668 324.913 356.117 325.007 355.799 325.176C342.463 333.096 328.556 340.097 313.758 345.634C301.546 350.195 288.975 353.686 275.894 355.676C266.799 357.065 257.64 357.59 248.439 357.14C223.317 355.901 201.607 347.567 183.29 332.308C183.057 332.139 182.866 331.933 182.484 331.576Z" fill="#999999"/>
<path d="M276.064 52.7808C279.392 52.7808 281.766 52.6495 284.099 52.8184C288.445 53.1187 292.812 53.1562 297.094 53.9821C297.624 54.0759 298.176 54.0759 298.706 54.0759C300.932 54.1135 301.886 55.6337 302.797 57.0414C305.172 60.7765 306.211 64.8493 305.808 69.1287C305.659 70.7053 305.214 72.2631 304.239 73.652C303.455 74.7594 302.416 75.4538 300.889 75.4163C296.67 75.3225 292.452 75.0597 288.254 74.872C281.554 74.5717 274.876 74.7031 268.198 74.7594C264.679 74.7782 261.117 74.9283 257.598 75.2286C252.785 75.6415 247.973 75.9794 243.16 76.5988C237.351 77.3308 231.627 78.1941 226.094 79.9396C224.631 80.3901 223.592 79.5267 222.49 78.851C220.2 77.4434 218.25 75.8292 217.169 73.4456C216.066 70.9868 216.999 68.9222 218.674 67.0641C221.727 63.6857 225.903 61.7149 230.292 59.9506C234.617 58.2239 239.132 57.0227 243.712 56.0091C247.252 55.2208 250.856 54.6765 254.46 54.1885C258.064 53.7005 261.668 53.3627 265.294 53.0436C269.195 52.7058 273.117 52.687 276.064 52.7808ZM224.801 66.7075C224.801 67.9462 225.882 68.8847 227.324 68.9035C228.808 68.9222 229.952 67.9087 229.952 66.6136C229.952 65.5438 228.659 64.3613 227.43 64.3238C225.924 64.305 224.801 65.2998 224.801 66.7075ZM235.952 73.3142C235.995 72.3382 234.511 70.9493 233.323 70.893C232.369 70.8367 230.673 72.2443 230.567 73.164C230.461 74.1963 232.03 75.6603 233.238 75.6791C234.468 75.6603 235.889 74.4403 235.952 73.3142ZM238.941 65.9004C238.941 64.5866 237.839 63.6106 236.334 63.6294C234.871 63.6294 233.726 64.6617 233.769 65.9567C233.79 67.0265 235.125 68.1902 236.334 68.209C237.797 68.209 238.941 67.1955 238.941 65.9004Z" fill="#BEBEBE"/>
<path d="M319.461 67.6835C319.207 71.1182 318.337 74.0649 315.539 76.336C315.115 76.6738 314.733 76.9178 314.14 76.8615C312.995 76.7489 311.871 76.5612 310.748 76.4111C309.772 76.2985 309.73 75.9606 310.112 75.36C311.596 72.92 312.041 70.2173 312.02 67.5521C312.02 64.1361 311.362 60.7202 309.751 57.5482C309.539 57.1353 309.051 56.6285 309.475 56.2719C309.815 55.9716 310.472 56.1217 311.002 56.2719C312.168 56.591 313.355 56.8725 314.542 57.1165C315.751 57.3793 316.132 58.374 316.599 59.1436C317.913 61.3395 318.931 63.6481 319.143 66.1819C319.207 66.7638 319.715 67.2893 319.461 67.6835Z" fill="#BEBEBE"/>
<path d="M334.132 70.0484C333.878 72.9013 332.245 74.872 330.167 76.58C329.298 77.2932 328.196 77.7624 327.327 78.4757C326.267 79.3578 325.207 79.2827 323.956 78.8886C322.048 78.2692 322.005 78.3068 322.938 76.7677C324.973 73.4643 325.758 69.9358 325.397 66.2195C325.249 64.793 324.846 63.3854 324.486 61.9777C324.422 61.6962 324.253 61.3208 324.422 61.2269C324.655 61.0955 325.122 61.1331 325.376 61.2457C326.436 61.7712 327.517 62.2968 328.514 62.9349C330.591 64.3051 332.5 65.8441 333.496 68.0401C333.814 68.7345 333.962 69.5228 334.132 70.0484Z" fill="#BEBEBE"/>
<path d="M242.206 452.636C242.503 464.649 230.737 476.004 215.282 475.46C201.777 474.99 190.329 465.193 190.329 452.655C190.329 439.536 201.713 429.569 216.278 429.494C230.737 429.438 242.418 439.817 242.206 452.636Z" fill="#C8C8C8"/>
<path d="M224.525 406.333C224.525 401.059 229.719 396.367 235.677 396.461C242.524 396.573 247.019 400.89 247.04 406.84C247.061 412.508 242.016 416.675 235.91 416.637C229.147 416.6 224.928 412.321 224.525 406.333Z" fill="#C8C8C8"/>
<path d="M175.043 388.728C174.874 384.336 178.732 381.126 183.545 381.126C188.4 381.126 192.131 384.374 192.11 388.784C192.067 393.157 188.463 396.273 183.757 396.404C178.944 396.498 174.789 393.157 175.043 388.728Z" fill="#C8C8C8"/>
<path d="M224.801 66.7074C224.801 65.281 225.924 64.2862 227.451 64.3238C228.68 64.3613 229.974 65.5438 229.974 66.6136C229.974 67.9087 228.829 68.9222 227.345 68.9034C225.882 68.9034 224.801 67.965 224.801 66.7074Z" fill="white"/>
<path d="M235.952 73.3142C235.889 74.4403 234.468 75.6791 233.239 75.6603C232.03 75.6415 230.461 74.1776 230.567 73.1453C230.673 72.2256 232.369 70.8179 233.323 70.8742C234.489 70.9305 235.995 72.3194 235.952 73.3142Z" fill="white"/>
<path d="M238.942 65.9004C238.942 67.1955 237.797 68.209 236.334 68.1902C235.126 68.1715 233.811 67.0266 233.769 65.938C233.726 64.6429 234.871 63.6106 236.334 63.6106C237.839 63.6106 238.942 64.5678 238.942 65.9004Z" fill="white"/>
</svg>
