<svg width="300" height="300" viewBox="0 0 300 300" fill="none" xmlns="http://www.w3.org/2000/svg">
<path d="M273 150.5C273 217.603 217.931 272 150 272C82.069 272 27 217.603 27 150.5C27 83.3974 82.069 29 150 29C185.938 29 218.275 44.2243 240.764 68.5C260.785 90.1115 273 118.897 273 150.5Z" fill="#FFFDED"/>
<path d="M244 151C244 204.572 200.795 248 147.5 248C94.2045 248 51 204.572 51 151C51 97.4284 94.2045 54 147.5 54C175.695 54 201.066 66.1544 218.709 85.535C234.417 102.789 244 125.769 244 151Z" fill="#FFFAD1"/>
<path d="M244 151C244 204.572 200.795 248 147.5 248C94.2045 248 51 204.572 51 151C51 97.4284 94.2045 54 147.5 54C175.695 54 201.066 66.1544 218.709 85.535C234.417 102.789 244 125.769 244 151Z" fill="#FFFAD1"/>
<path d="M233 151C233 197.944 194.944 236 148 236C101.056 236 63 197.944 63 151C63 104.056 101.056 66 148 66C172.835 66 195.182 76.6508 210.723 93.6337C224.559 108.753 233 128.891 233 151Z" fill="white"/>
<g clip-path="url(#clip0)">
<path d="M96.214 121.5C103.349 113.81 103.349 104.31 109.746 100.012C115.897 95.9405 126.968 97.5238 131.643 102.952C134.841 106.798 135.087 113.357 132.627 114.94C129.428 116.976 123.77 109.738 119.095 111.774C114.666 113.583 112.944 122.857 116.635 128.964C119.833 134.167 125.492 134.393 125 136.202C124.262 140.274 93.0156 142.31 90.3092 134.845C89.3251 132.131 92.0314 126.929 93.7537 124.214C94.9838 122.857 95.9679 121.952 96.214 121.5Z" fill="#010202"/>
<path d="M146.158 146.155C142.222 144.571 146.896 133.262 140.746 128.964C137.793 126.929 135.087 128.512 133.611 126.476C131.396 123.31 135.579 114.036 142.96 112.452C150.341 110.869 156.492 117.429 156.738 117.881C160.92 122.631 160.428 128.512 160.182 130.321C159.444 136.429 155.754 140.274 154.523 141.631C153.539 142.988 148.865 147.512 146.158 146.155Z" fill="#010202"/>
<path d="M126.476 151.131C125.492 148.643 120.572 147.286 116.881 148.417C109.746 150.226 105.81 161.083 109.254 164.929C110.976 166.738 114.913 166.512 122.786 166.06C131.643 165.607 136.564 165.155 137.794 162.44C138.778 160.405 137.794 157.238 135.825 156.107C132.381 154.071 126.476 158.369 125.246 156.786C124.508 155.429 127.214 153.167 126.476 151.131Z" fill="#010202"/>
<path d="M202.007 148.19C191.92 146.381 191.428 144.798 189.214 145.702C184.047 147.964 182.817 158.821 187 161.536C188.968 162.893 192.658 161.988 199.793 160.179C200.531 159.952 201.761 159.726 203.238 158.821C204.468 158.143 208.404 156.107 208.158 153.167C208.158 151.583 206.682 150.452 206.19 150C204.714 148.643 202.992 148.417 202.007 148.19Z" fill="#010202"/>
<path d="M174.452 134.167C171.254 131.452 170.762 123.31 175.928 120.143C178.635 118.333 183.063 118.333 186.016 120.143C188.23 121.5 190.198 123.988 189.706 126.476C189.46 127.833 188.722 128.06 188.23 130.095C187.738 132.357 188.476 132.81 187.984 134.393C187.246 136.655 184.786 138.917 182.325 138.69C181.833 138.69 181.341 138.464 178.143 136.429C175.928 135.071 174.698 134.393 174.452 134.167Z" fill="#010202"/>
<path d="M158.214 165.155C159.444 157.917 155.508 154.298 157.968 151.81C160.182 149.548 165.841 149.774 169.039 152.036C173.222 154.976 173.468 160.857 173.468 162.214C173.468 165.381 172.484 166.738 173.714 169C174.944 171.488 177.158 171.262 178.143 173.071C180.111 176.464 176.666 183.25 171.008 185.512C163.627 188.226 154.769 182.345 153.539 177.143C152.801 172.845 156.984 171.714 158.214 165.155Z" fill="#010202"/>
<path d="M119.095 184.607C118.849 181.667 118.603 177.821 121.309 176.012C124.262 173.976 128.936 175.56 129.921 176.012C132.873 177.143 133.857 178.5 136.563 180.762C144.436 187.548 148.127 186.417 150.095 190.94C151.571 193.881 151.817 197.952 149.603 199.988C147.881 201.571 144.436 201.119 137.548 199.988C130.659 198.857 126.968 198.179 124.508 196.143C119.833 192.524 119.341 186.869 119.095 184.607Z" fill="#010202"/>
<path d="M94.7382 165.155C98.4287 166.06 101.873 166.738 103.595 169.679C104.58 171.488 105.072 174.202 103.841 176.464C102.365 178.952 100.151 178.726 99.1668 180.988C98.1827 183.25 99.9049 184.607 99.6589 186.869C99.1668 191.167 92.2779 195.917 86.1271 195.012C78.5001 193.881 75.7938 184.607 75.5478 179.631C75.5478 178.726 75.0557 168.774 82.1906 165.155C86.1271 163.119 90.3097 164.024 94.7382 165.155Z" fill="#010202"/>
<path d="M81.6988 119.464C80.4687 117.429 78.0084 115.845 75.7941 116.071C72.5957 116.298 70.6274 119.917 67.9211 124.893C65.4607 129.643 63.2464 133.94 63.0004 140.5C62.7544 145.25 62.5084 154.071 67.675 156.333C72.1036 158.143 78.9925 154.524 81.6988 149.774C81.9449 149.548 84.4052 145.024 83.175 140.274C82.4369 138.012 81.4528 137.56 80.7147 134.619C80.4687 133.488 79.9766 131 80.7147 128.06C81.2068 125.798 81.9449 125.345 82.1909 123.083C82.4369 122.179 82.4369 120.821 81.6988 119.464Z" fill="#010202"/>
<path d="M161.413 96.8452C157.969 102.274 147.881 105.214 142.961 101.821C141.484 100.69 140.746 97.75 139.516 92.0952C138.04 85.0833 137.056 81.4643 138.532 79.2024C140.746 75.8095 145.175 74 149.111 74C150.095 74 154.77 74 156.492 76.4881C157.969 79.2024 155.016 82.1429 156.492 83.9524C158.215 85.7619 162.151 83.7262 163.873 85.7619C164.611 86.6667 164.365 88.0238 163.873 90.7381C163.135 92.5476 162.643 95.0357 161.413 96.8452Z" fill="#010202"/>
<path d="M185.523 99.1071C178.881 95.4881 175.436 96.3929 174.452 94.131C172.73 90.2857 180.357 81.6905 186.261 82.8214C189.214 83.5 191.182 86.4405 192.412 88.7024C194.135 91.6429 194.381 94.131 194.873 98.4286C195.119 101.821 195.365 103.631 194.381 104.083C192.658 104.762 190.69 101.821 185.523 99.1071Z" fill="#010202"/>
<path d="M202.254 131C201.27 123.762 200.532 120.369 202.254 118.786C203.977 117.202 207.421 117.881 209.635 118.786C210.127 119.012 212.096 119.917 212.588 121.5C213.08 122.857 212.834 123.988 212.588 124.893C211.85 129.643 218.492 131.905 218 135.976C217.754 139.143 213.326 141.405 210.127 142.083C207.667 142.536 203.484 142.762 202.254 140.726C201.516 139.595 202.5 138.464 202.5 135.071C202.746 133.714 202.5 132.81 202.254 131Z" fill="#010202"/>
<path d="M197.826 185.286C198.564 182.119 196.842 181.214 197.58 178.726C198.564 175.333 203.976 172.167 208.651 172.845C215.294 173.75 219.476 181.893 216.77 187.321C215.294 190.262 211.603 192.976 208.159 192.976C204.469 192.976 203.238 190.488 199.056 190.714C195.857 190.94 193.889 192.298 193.397 191.845C192.659 191.167 196.596 189.131 197.826 185.286Z" fill="#010202"/>
<path d="M171.008 196.821C171.254 194.107 173.222 190.488 176.175 189.81C178.881 189.357 181.342 191.167 182.818 192.298C188.23 196.369 187.738 200.893 191.429 202.024C194.627 202.929 197.334 200.44 198.072 201.119C199.302 202.476 192.905 212.202 185.032 211.75C181.342 211.524 178.881 209.262 176.667 207.226C174.699 205.417 170.516 201.798 171.008 196.821Z" fill="#010202"/>
<path d="M150.342 211.976C148.619 210.167 146.159 209.94 144.437 209.714C142.715 209.488 137.794 209.036 134.842 212.202C131.889 215.369 132.381 220.345 134.842 223.06C137.056 225.321 139.27 223.964 150.096 225.095C156.984 225.774 159.199 226.679 161.167 225.095C163.873 223.06 164.611 218.762 162.889 217.405C160.675 215.595 155.508 219.44 152.802 217.405C151.08 216.048 152.31 214.012 150.342 211.976Z" fill="#010202"/>
</g>
<path d="M129.844 62C125.154 62 120.533 62.2506 116 62.7354C168.57 68.3606 209.311 105.574 209.311 150.5C209.311 195.426 168.57 232.639 116 238.265C120.533 238.75 125.154 239 129.844 239C188.93 239 237 199.299 237 150.5C237 101.701 188.93 62 129.844 62Z" fill="#F9F3DF" fill-opacity="0.8"/>
<path d="M233 76L224 83.5V90.6296L236.5 105.5L254 96.5L264.5 85.5L260 73.5L247.702 67L233 76Z" fill="#FFFAD1"/>
<path d="M68.2701 90.7178C70.0165 88.7119 71.7629 86.6188 73.5092 84.7002C75.3429 82.6943 77.1766 80.7757 79.0976 78.857C81.0186 77.0256 83.1142 75.1942 85.2098 73.5371C87.3055 71.8801 89.4884 70.2231 91.6714 68.7405C94.029 67.1707 96.4739 65.6881 98.9188 64.2928C101.276 62.9846 103.634 61.6764 106.079 60.6299C108.524 59.4961 111.056 58.5368 113.588 57.5775C116.12 56.6182 118.653 55.746 121.272 55.0483C123.892 54.3507 126.511 53.653 129.131 53.2169C131.75 52.6936 134.457 52.432 137.164 52.0832C139.871 51.8215 142.491 51.4727 145.197 51.3855C147.904 51.2983 150.611 51.3855 153.318 51.5599C156.025 51.7343 158.732 51.9087 161.351 52.2576C163.971 52.6064 166.678 53.2169 169.297 53.8274C172.091 54.4379 174.886 55.1356 177.592 55.9205C180.125 56.7054 182.657 57.6647 185.189 58.624C187.721 59.5833 190.166 60.7171 192.524 61.8508C194.969 63.0718 197.326 64.38 199.597 65.7753C201.867 67.1707 204.137 68.6533 206.32 70.2231C208.503 71.7929 210.599 73.4499 212.694 75.1942C250.678 107.55 259.06 162.667 231.904 204.703C216.624 228.337 194.881 243.076 167.289 248.657C139.696 254.239 114.199 248.134 90.3616 232.523C90.2743 233.919 90.0123 234.791 90.0997 235.663C91.6714 245.169 95.95 253.28 102.761 260.082C103.372 260.693 104.333 261.129 105.206 261.478C114.374 265.14 123.804 267.582 133.584 268.978C142.578 270.286 151.659 270.373 160.653 269.588C173.052 268.629 185.014 265.664 196.453 260.693C234.96 243.599 258.973 214.471 267.705 173.394C273.118 148.016 269.8 123.335 258.973 99.7005C258.449 98.5668 257.925 97.4331 257.401 96.2121C257.314 95.9505 257.226 95.6016 257.139 94.9039C258.362 94.0318 259.759 93.0725 261.156 92.1132C267.705 100.485 274.777 125.253 275.738 141.388C277.31 168.772 271.11 194.238 256.353 217.436C239.937 243.076 217.147 260.693 188.071 269.937C159.168 279.181 130.615 277.612 102.412 266.71C101.888 267.408 101.538 267.931 101.102 268.367C100.403 269.239 99.8793 270.199 99.0934 270.984C91.7587 278.484 85.2098 278.92 76.478 273.862C70.977 270.635 69.6672 265.489 72.2868 259.559C73.5092 256.943 74.1204 254.239 74.2951 251.099C38.0581 221.709 20.2452 183.947 24.6111 137.114C27.9292 102.23 43.9084 73.3627 71.5009 51.5599C128.782 6.21002 206.844 20.6871 245.875 68.9149C244.478 69.8743 243.081 70.8336 241.597 71.8801C211.646 39.2631 174.886 25.0477 131.139 31.3269C98.3949 36.0363 65.214 57.5775 51.4177 81.4734C61.372 81.6478 62.2452 83.4792 68.2701 90.7178ZM147.904 57.0542C95.95 57.2286 53.95 99.0028 54.2119 151.242C54.3866 202.261 95.1641 244.21 147.293 244.559C202.653 244.907 242.208 199.906 241.946 150.458C241.684 100.485 201.343 57.1414 147.904 57.0542ZM74.557 242.902C74.3824 239.5 74.4697 239.413 72.898 236.797C71.2389 234.006 70.2784 231.041 70.1038 227.814C70.0165 224.674 70.1038 221.448 70.1911 218.308C70.2784 216.738 70.4531 215.168 70.6277 213.686C55.4344 194.499 48.0123 172.696 48.187 148.452C46.9645 146.882 45.8294 145.312 44.6942 143.829C41.2888 139.382 38.7566 134.411 37.6215 128.916C36.8356 124.905 36.4863 120.806 35.8751 116.707C35.7878 116.096 36.1371 115.224 35.1766 114.875C20.9437 157.434 34.6527 212.378 74.557 242.902Z" fill="black"/>
<path d="M148.254 63.0707C196.279 63.0707 237.056 101.88 236.532 152.288C236.096 199.818 198.2 239.848 147.817 239.674C94.6404 239.412 58.7527 195.806 59.5385 149.933C60.4117 101.967 99.6175 62.809 148.254 63.0707ZM147.992 233.83C192.349 234.179 230.944 198.423 230.769 151.067C230.595 103.188 191.214 68.6522 147.992 68.7394C103.809 68.9138 65.3888 104.496 65.3888 151.329C65.3888 197.638 103.11 234.092 147.992 233.83Z" fill="black"/>
<path d="M248.145 69.1755C250.241 69.1755 252.075 70.1348 253.297 71.7918L259.409 79.9897C260.457 81.3851 260.894 83.0421 260.632 84.7863C260.37 86.4433 259.497 88.0131 258.1 88.9724L237.58 104.147L223.958 85.484L244.391 70.4836C245.438 69.6115 246.748 69.1755 248.145 69.1755ZM248.145 63.0707C245.526 63.0707 242.906 63.8556 240.723 65.5126L217.322 82.7804C216.711 83.2165 216.1 83.7398 215.576 84.3502L236.095 112.519C236.881 112.171 237.58 111.735 238.278 111.211L261.68 93.9435C267.268 89.8445 268.403 81.9955 264.299 76.414L258.187 68.2161C255.829 64.8149 251.987 63.0707 248.145 63.0707Z" fill="black"/>
<defs>
<clipPath id="clip0">
<rect width="155" height="152" fill="white" transform="translate(63 74)"/>
</clipPath>
</defs>
</svg>
