<svg width="300" height="300" viewBox="0 0 300 300" fill="none" xmlns="http://www.w3.org/2000/svg">
<path d="M273 150.5C273 217.603 217.931 272 150 272C82.069 272 27 217.603 27 150.5C27 83.3974 82.069 29 150 29C185.938 29 218.275 44.2243 240.764 68.5C260.785 90.1115 273 118.897 273 150.5Z" fill="#727272"/>
<path d="M244 151C244 204.572 200.795 248 147.5 248C94.2045 248 51 204.572 51 151C51 97.4284 94.2045 54 147.5 54C175.695 54 201.066 66.1544 218.709 85.535C234.417 102.789 244 125.769 244 151Z" fill="#888671"/>
<path d="M244 151C244 204.572 200.795 248 147.5 248C94.2045 248 51 204.572 51 151C51 97.4284 94.2045 54 147.5 54C175.695 54 201.066 66.1544 218.709 85.535C234.417 102.789 244 125.769 244 151Z" fill="#888671"/>
<path d="M233 151C233 197.944 194.944 236 148 236C101.056 236 63 197.944 63 151C63 104.056 101.056 66 148 66C172.835 66 195.182 76.6508 210.723 93.6337C224.559 108.753 233 128.891 233 151Z" fill="#D5D5D5"/>
<path d="M129.844 62C125.154 62 120.533 62.2506 116 62.7354C168.57 68.3606 209.311 105.574 209.311 150.5C209.311 195.426 168.57 232.639 116 238.265C120.533 238.75 125.154 239 129.844 239C188.93 239 237 199.299 237 150.5C237 101.701 188.93 62 129.844 62Z" fill="#9E9C94"/>
<path d="M233 76L224 83.5V90.6296L236.5 105.5L254 96.5L264.5 85.5L260 73.5L247.702 67L233 76Z" fill="#888671"/>
<path d="M68.2699 90.7178C70.0162 88.7119 71.7626 86.6188 73.509 84.7002C75.3427 82.6943 77.1763 80.7757 79.0973 78.857C81.0183 77.0256 83.114 75.1942 85.2096 73.5371C87.3052 71.8801 89.4882 70.2231 91.6711 68.7405C94.0287 67.1707 96.4736 65.6881 98.9185 64.2928C101.276 62.9846 103.634 61.6764 106.079 60.6299C108.524 59.4961 111.056 58.5368 113.588 57.5775C116.12 56.6182 118.652 55.746 121.272 55.0483C123.892 54.3507 126.511 53.653 129.131 53.2169C131.75 52.6936 134.457 52.432 137.164 52.0832C139.871 51.8215 142.49 51.4727 145.197 51.3855C147.904 51.2983 150.611 51.3855 153.318 51.5599C156.025 51.7343 158.731 51.9087 161.351 52.2576C163.971 52.6064 166.677 53.2169 169.297 53.8274C172.091 54.4379 174.885 55.1356 177.592 55.9205C180.124 56.7054 182.657 57.6647 185.189 58.624C187.721 59.5833 190.166 60.7171 192.524 61.8508C194.968 63.0718 197.326 64.38 199.596 65.7753C201.867 67.1707 204.137 68.6533 206.32 70.2231C208.503 71.7929 210.598 73.4499 212.694 75.1942C250.677 107.55 259.06 162.667 231.904 204.703C216.623 228.337 194.881 243.076 167.289 248.657C139.696 254.239 114.199 248.134 90.3614 232.523C90.274 233.919 90.0121 234.791 90.0994 235.663C91.6711 245.169 95.9497 253.28 102.761 260.082C103.372 260.693 104.332 261.129 105.205 261.478C114.374 265.14 123.804 267.582 133.584 268.978C142.578 270.286 151.659 270.373 160.652 269.588C173.052 268.629 185.014 265.664 196.453 260.693C234.96 243.599 258.973 214.471 267.704 173.394C273.118 148.016 269.8 123.335 258.973 99.7005C258.449 98.5668 257.925 97.4331 257.401 96.2121C257.314 95.9505 257.226 95.6016 257.139 94.9039C258.361 94.0318 259.758 93.0725 261.156 92.1132C267.704 100.485 274.777 125.253 275.738 141.388C277.309 168.772 271.11 194.238 256.353 217.436C239.937 243.076 217.147 260.693 188.07 269.937C159.168 279.181 130.615 277.612 102.411 266.71C101.887 267.408 101.538 267.931 101.101 268.367C100.403 269.239 99.879 270.199 99.0932 270.984C91.7585 278.484 85.2096 278.92 76.4778 273.862C70.9767 270.635 69.667 265.489 72.2865 259.559C73.509 256.943 74.1202 254.239 74.2948 251.099C38.0578 221.709 20.2449 183.947 24.6108 137.114C27.9289 102.23 43.9081 73.3627 71.5007 51.5599C128.781 6.21002 206.844 20.6871 245.875 68.9149C244.478 69.8743 243.081 70.8336 241.596 71.8801C211.646 39.2631 174.885 25.0477 131.139 31.3269C98.3946 36.0363 65.2138 57.5775 51.4175 81.4734C61.3718 81.6478 62.2449 83.4792 68.2699 90.7178ZM147.904 57.0542C95.9497 57.2286 53.9497 99.0028 54.2117 151.242C54.3863 202.261 95.1639 244.21 147.293 244.559C202.652 244.907 242.208 199.906 241.946 150.458C241.684 100.485 201.343 57.1414 147.904 57.0542ZM74.5568 242.902C74.3822 239.5 74.4695 239.413 72.8977 236.797C71.2387 234.006 70.2782 231.041 70.1036 227.814C70.0162 224.674 70.1036 221.448 70.1909 218.308C70.2782 216.738 70.4528 215.168 70.6275 213.686C55.4341 194.499 48.0121 172.696 48.1867 148.452C46.9643 146.882 45.8291 145.312 44.694 143.829C41.2886 139.382 38.7564 134.411 37.6212 128.916C36.8354 124.905 36.4861 120.806 35.8749 116.707C35.7876 116.096 36.1368 115.224 35.1763 114.875C20.9435 157.434 34.6524 212.378 74.5568 242.902Z" fill="white"/>
<path d="M148.253 63.0707C196.278 63.0707 237.056 101.88 236.532 152.288C236.095 199.818 198.199 239.848 147.817 239.674C94.6402 239.412 58.7524 195.806 59.5383 149.933C60.4115 101.967 99.6173 62.8091 148.253 63.0707ZM147.992 233.83C192.349 234.179 230.944 198.423 230.769 151.067C230.594 103.188 191.214 68.6522 147.992 68.7394C103.809 68.9139 65.3886 104.496 65.3886 151.329C65.3886 197.638 103.11 234.092 147.992 233.83Z" fill="white"/>
<path d="M248.146 69.1755C250.241 69.1755 252.075 70.1348 253.297 71.7918L259.41 79.9897C260.457 81.3851 260.894 83.0421 260.632 84.7863C260.37 86.4433 259.497 88.0131 258.1 88.9724L237.58 104.147L223.958 85.484L244.391 70.4836C245.439 69.6115 246.748 69.1755 248.146 69.1755ZM248.146 63.0707C245.526 63.0707 242.906 63.8556 240.724 65.5126L217.322 82.7804C216.711 83.2165 216.1 83.7398 215.576 84.3502L236.096 112.519C236.882 112.171 237.58 111.735 238.279 111.211L261.68 93.9435C267.268 89.8445 268.403 81.9955 264.299 76.414L258.187 68.2161C255.83 64.8149 251.988 63.0707 248.146 63.0707Z" fill="white"/>
</svg>
