<svg width="300" height="300" viewBox="0 0 300 300" fill="none" xmlns="http://www.w3.org/2000/svg">
<path d="M25.5 124L21 166.5L31.5 199.5L42.5 218.5L51.5 228.5L67 245.5L93 260L123.5 268.5L155.5 272.5L187.5 268.5L218 255.5L237.5 241.5L251 225.5L256 218.5L263 209.5L273.5 188L278 147L271.5 115.5L259.5 90L243.5 73V50.5L237.5 35L214 27L194.5 39.5L171.5 35H104.5L78 27L57 43.5L54.5 64L25.5 124Z" fill="#676767" stroke="white"/>
<path d="M61 190.5L51.5 225.5V228.5L67 245.5L93 260L123.5 268.5L155.5 272.5L187.5 268.5L218 255.5L237.5 241.5L251 225.5L246.5 209.5L230 160.5L197.5 111L164 92H123.5L95.5 120L74.5 152.5L61 190.5Z" fill="#B1B1B1" stroke="white"/>
<path d="M80.183 24.0005C81.756 24.0005 83.3291 24.0005 84.9022 24.0005C85.0641 24.0698 85.2261 24.197 85.3996 24.2086C93.1724 24.9256 99.7424 28.175 105.329 33.5407C106.995 35.1365 108.926 35.4718 111.101 34.8705C121.476 32.0027 132.025 30.3606 142.805 30.0252C158.27 29.5396 173.573 30.4878 188.517 34.8242C191.016 35.5528 193.075 34.9977 194.972 33.159C199.101 29.1579 203.971 26.4057 209.58 25.0528C211.315 24.6365 213.074 24.3474 214.82 23.9889C216.393 23.9889 217.966 23.9889 219.539 23.9889C219.794 24.0698 220.048 24.197 220.314 24.2317C228.885 25.1337 235.906 29.0539 241.377 35.5759C248.387 43.925 250.249 53.5577 247.658 64.0577C246.93 67.0296 247.462 69.4118 249.532 71.7014C252.482 74.9509 255.35 78.2929 258.01 81.7851C271.902 100.01 279.86 120.513 281.503 143.421C281.665 145.71 281.838 148 282.012 150.278C282.012 152.221 282.012 154.163 282.012 156.106C281.931 156.349 281.803 156.603 281.792 156.846C281.503 160.755 281.364 164.687 280.913 168.584C279.12 184.102 274.296 198.638 266.373 212.122C258.01 226.345 246.895 238.094 233.928 248.155C213.733 263.824 191.108 273.433 165.476 275.503C163.88 275.63 162.295 275.827 160.699 275.989C153.482 275.989 146.264 275.989 139.046 275.989C138.665 275.908 138.271 275.781 137.89 275.758C127.179 275.179 116.699 273.318 106.52 269.953C81.571 261.684 60.878 247.091 44.0599 227.062C28.8612 208.999 20.5216 187.988 18.4974 164.478C18.3701 162.975 18.1619 161.483 18 159.992C18 155.366 18 150.741 18 146.115C18.1735 144.577 18.3701 143.039 18.5089 141.489C19.7234 127.497 23.3901 114.187 29.5668 101.559C34.9453 90.5621 41.9432 80.6866 50.2829 71.7361C52.3533 69.5043 52.9779 67.1453 52.2145 64.1387C47.7382 46.5153 57.9285 29.3198 75.348 24.9603C76.9327 24.5555 78.5636 24.3127 80.183 24.0005ZM263.956 197.447C264.118 197.505 264.28 197.563 264.442 197.62C265.112 196.268 265.899 194.972 266.42 193.562C269.034 186.484 271.058 179.246 272.423 171.822C274.967 157.98 275.06 144.161 272.122 130.365C268.663 114.129 261.469 99.6282 251.556 86.4223C248.78 82.7218 245.727 79.2411 242.939 75.5522C239.77 71.3545 238.729 66.6249 240.244 61.5368C243.17 51.7306 238.706 41.8435 231.21 36.4779C221.957 29.8518 209.268 29.979 200.952 38.224C196.683 42.4564 191.478 43.7169 185.73 42.1211C171.965 38.305 157.935 37.1255 143.719 37.5996C133.691 37.9349 123.871 39.5539 114.189 42.1211C108.487 43.6359 103.305 42.5489 99.0599 38.3512C90.9632 30.3259 79.0147 29.8402 69.715 35.7494C61.1672 41.1844 56.9916 51.3953 59.4206 60.8314C59.756 62.1266 60.0452 63.4448 60.1724 64.7631C60.6698 69.6546 58.6688 73.7136 55.6151 77.2984C49.6004 84.3523 44.0831 91.7416 39.4911 99.8132C30.9779 114.777 26.1546 130.816 25.5647 148.046C25.1598 159.633 26.6982 171.012 29.8328 182.16C31.0589 186.508 32.5741 190.775 34.0547 195.053C34.3554 195.932 35.0379 196.684 35.5468 197.505C35.6625 197.447 35.7897 197.389 35.9054 197.331C35.9054 196.823 35.9285 196.325 35.9054 195.817C35.3733 183.42 37.0273 171.29 40.5668 159.425C40.8444 158.511 41.2723 157.598 41.8275 156.835C42.7876 155.493 44.2797 155.146 45.9222 155.667C47.4606 156.152 48.3628 157.286 48.3743 158.974C48.3743 159.795 48.2471 160.639 48.0158 161.426C43.2271 177.141 42.3828 193.099 44.939 209.277C45.6446 213.752 46.5237 218.158 49.6814 221.639C53.9033 226.299 57.9863 231.109 62.5552 235.4C84.3354 255.833 110.476 265.975 140.099 267.686C154.442 268.519 168.657 267.698 182.688 264.471C210.332 258.111 232.633 243.333 250.388 221.419C252.377 218.967 253.661 216.181 254.24 213.081C254.587 211.22 254.887 209.346 255.165 207.473C257.027 194.868 256.784 182.321 254.02 169.856C253.314 166.699 252.377 163.611 251.626 160.466C251.047 158.049 251.961 156.291 253.951 155.655C256.368 154.88 258.277 156.037 259.19 159.02C261.966 168.121 263.643 177.43 263.956 186.947C264.048 190.439 263.956 193.943 263.956 197.447Z" fill="white"/>
<path d="M150.093 80.3855C167.235 79.1482 183.74 85.5083 199.205 102.056C222.2 126.676 240.071 163.264 251.811 213.625C252.331 215.868 252.852 218.181 253.187 220.586C253.754 224.61 253.06 228.149 251.51 229.918C249.671 232.034 247.901 231.421 246.687 227.837C245.923 225.57 245.357 222.98 244.755 220.47C228.955 155.516 204.607 115.274 171.734 101.316C148.843 91.6025 126.323 95.9389 104.832 117.089C82.3923 139.165 65.7015 174.654 54.5627 222.737C54.2735 223.997 53.9612 225.258 53.6257 226.472C52.3418 231.028 50.5143 232.254 48.4207 229.976C46.6163 228.01 45.8876 223.616 46.9055 219.025C48.4785 211.913 50.0401 204.732 51.9717 198.071C68.1652 142.009 90.5237 103.906 119.984 87.0001C129.654 81.4494 139.544 79.5645 149.537 80.3855C149.722 80.3971 149.908 80.3855 150.093 80.3855Z" fill="white"/>
<path d="M224.64 73.3777C222.743 73.3777 221.298 73.4587 219.875 73.3546C217.018 73.1465 215.479 70.429 216.659 67.804C217.226 66.5551 218.279 66 219.539 65.9769C223.09 65.919 226.653 65.9075 230.204 65.9884C231.569 66.0116 232.714 66.636 233.234 68.0237C233.732 69.3535 233.2 70.4636 232.378 71.4697C231.118 73.0193 229.464 73.6668 227.486 73.5281C226.387 73.4587 225.276 73.4124 224.64 73.3777Z" fill="white"/>
<path d="M75.0472 65.9538C76.7128 65.9538 78.3785 65.8844 80.0325 65.9653C82.3227 66.081 83.4794 67.2836 83.5141 69.4229C83.5488 71.7241 82.369 73.1465 80.125 73.3431C78.7949 73.4587 77.4531 73.3778 76.1114 73.4009C74.8622 73.424 73.613 73.4356 72.3753 73.5281C70.328 73.6784 68.6855 72.9615 67.39 71.3657C66.5457 70.3249 66.1524 69.1801 66.6729 67.8965C67.1703 66.6476 68.246 66.0694 69.5183 66.0116C71.3574 65.9191 73.2081 65.9885 75.0588 65.9885C75.0472 65.9769 75.0472 65.9653 75.0472 65.9538Z" fill="white"/>
<path d="M84.8559 53.3723C84.8559 54.8525 84.9138 56.3211 84.8444 57.8012C84.7287 60.0909 83.4563 61.4092 81.3628 61.5133C79.0378 61.6289 77.4995 60.5072 77.3491 58.1135C77.1525 55.0375 77.1409 51.9384 77.326 48.8739C77.4763 46.3761 79.0031 45.2429 81.3859 45.3816C83.572 45.5088 84.7403 46.804 84.8559 49.2324C84.8791 49.6025 84.9022 49.9725 84.9022 50.3425C84.9138 51.3602 84.9022 52.3778 84.9022 53.3838C84.8791 53.3723 84.8675 53.3723 84.8559 53.3723Z" fill="white"/>
<path d="M215.051 53.3029C215.051 51.8342 215.005 50.3541 215.063 48.8855C215.144 46.7693 216.358 45.5319 218.406 45.3932C220.638 45.2313 222.35 46.2951 222.477 48.3998C222.674 51.7533 222.686 55.1299 222.477 58.4719C222.35 60.5765 220.638 61.652 218.417 61.5132C216.428 61.386 215.156 60.1024 215.063 58.0094C215.005 56.4367 215.051 54.864 215.051 53.3029Z" fill="white"/>
<path d="M149.873 73.505C147.987 73.5628 146.183 73.2506 144.494 72.418C141.973 71.1922 140.018 69.3651 138.722 66.8442C138.665 66.7286 138.607 66.6129 138.572 66.4973C138.514 66.3007 138.584 66.1157 138.757 66.0347C138.954 65.9307 139.15 65.9654 139.289 66.1388C139.37 66.2545 139.44 66.3817 139.497 66.5089C141.232 69.7467 143.904 71.7589 147.502 72.4527C150.012 72.9384 152.475 72.7187 154.835 71.6663C157.299 70.5678 159.126 68.7985 160.341 66.3932C160.375 66.3354 160.41 66.266 160.445 66.2082C160.584 65.9769 160.792 65.9191 161.012 66.0347C161.208 66.1272 161.289 66.347 161.173 66.5782C161 66.9367 160.826 67.2952 160.618 67.619C158.837 70.4174 156.385 72.3139 153.158 73.1696C152.094 73.4472 151.018 73.5397 149.919 73.505C149.907 73.505 149.884 73.505 149.873 73.505Z" stroke="white" stroke-width="4" stroke-miterlimit="10"/>
</svg>
