<svg width="299" height="300" viewBox="0 0 299 300" fill="none" xmlns="http://www.w3.org/2000/svg">
<ellipse cx="150.5" cy="150.5" rx="113.5" ry="111.5" fill="#FFE193"/>
<path d="M156.844 39C152.154 39 147.533 39.3158 143 39.9266C195.57 47.0136 236.311 93.8989 236.311 150.5C236.311 207.101 195.57 253.986 143 261.073C147.533 261.685 152.154 262 156.844 262C215.93 262 264 211.981 264 150.5C264 89.0188 215.93 39 156.844 39V39Z" fill="#DCC471"/>
<path d="M24 150.5C24 80.7506 80.7506 24 150.5 24C220.249 24 277 80.7506 277 150.5C277 220.249 220.249 277 150.5 277C80.7506 277 24 220.249 24 150.5ZM37.9231 150.5C37.9231 212.578 88.4224 263.077 150.5 263.077C212.578 263.077 263.077 212.578 263.077 150.5C263.077 88.4224 212.578 37.9231 150.5 37.9231C88.4224 37.9231 37.9231 88.4224 37.9231 150.5Z" fill="#C0B128" stroke="black" stroke-width="6"/>
<path d="M228.252 79.6277C225.999 77.9914 223.09 77.5588 220.458 78.4672C210.144 81.9549 195.415 87.97 186.642 99.8495C185.176 101.843 183.954 104.002 182.997 106.284C182.997 106.3 182.975 106.311 182.97 106.329C180.334 112.605 179.852 119.578 181.602 126.157C181.628 126.272 181.664 126.386 181.707 126.494C181.977 127.478 182.247 128.458 182.628 129.421C183.603 131.418 183.957 133.661 183.64 135.861C182.582 139.727 177.644 141.366 173.467 142.478C168.966 137.783 164.503 131.752 164.503 129.306C164.8 121.093 160.787 113.322 153.92 108.809C153.416 108.518 152.896 108.257 152.362 108.027C151.634 107.689 150.879 107.413 150.105 107.202C146.741 106.237 143.122 106.831 140.245 108.821C139.6 109.319 139.027 109.904 138.545 110.56C133.071 111.261 128.504 115.08 126.846 120.342C126.567 121.166 126.703 122.073 127.21 122.78C127.718 123.487 128.535 123.906 129.405 123.905C129.587 123.908 129.767 123.889 129.945 123.852C132.863 123.307 135.838 123.141 138.798 123.358C139.004 123.615 139.228 123.858 139.468 124.087C141.973 126.662 141.592 129.511 138.306 132.796L128.601 142.515C124.416 141.403 119.454 139.764 118.392 135.887C118.076 133.688 118.429 131.444 119.404 129.448C119.775 128.484 120.053 127.504 120.325 126.522C120.368 126.412 120.404 126.299 120.431 126.184C122.18 119.605 121.698 112.632 119.062 106.357C119.062 106.338 119.041 106.327 119.035 106.311C118.072 104.019 116.84 101.85 115.365 99.8495C106.594 87.97 91.8769 81.9549 81.5497 78.4672C78.9172 77.5625 76.0104 77.9951 73.7549 79.6277C71.3918 81.3419 69.9965 84.0893 70.0076 87.0097C70.2041 89.1318 71.1459 91.1154 72.6673 92.6084C71.7354 97.6335 72.7748 102.826 75.5692 107.104C74.8499 111.796 75.8275 116.59 78.3265 120.625C77.6183 125.326 78.1695 132.988 83.542 137.195C83.0242 142.409 85.0411 147.554 88.9639 151.028C88.514 156.629 91.8139 161.855 97.0628 163.856C97.0306 168.43 98.7152 172.849 101.785 176.239C103.885 178.354 106.53 179.844 109.425 180.546C104.318 184.613 100.169 189.755 97.2766 195.608C95.5933 198.503 94.8517 201.851 95.157 205.185L89.1097 210.223L81.661 207.739C80.2446 207.268 78.7133 208.034 78.2424 209.451C77.7716 210.868 78.5378 212.398 79.9542 212.869L84.2279 214.292L81.7796 216.331C80.6327 217.285 80.477 218.988 81.4311 220.135C82.3852 221.281 84.0883 221.438 85.2352 220.482L87.833 218.323L89.0442 221.963C89.5163 223.379 91.0464 224.145 92.4627 223.674C93.8791 223.202 94.6453 221.672 94.1745 220.256L92.2848 214.613L97.7462 210.064C100.626 212.245 104.206 213.29 107.806 213.001C110.925 212.964 114.039 212.753 117.134 212.37C116.825 212.894 116.571 213.449 116.375 214.025C115.868 215.359 115.952 216.847 116.605 218.117C117.259 219.387 118.42 220.319 119.802 220.682C120.776 220.977 121.791 221.119 122.809 221.101C125.51 221.001 128.174 220.459 130.698 219.495C127.459 226.039 126.136 233.134 130.231 235.616C131.012 236.089 131.909 236.338 132.824 236.331C136.214 236.331 140.094 233.172 143.418 228.917C144.408 234.971 146.868 240 151.004 240C155.14 240 157.6 234.971 158.591 228.931C161.914 233.186 165.794 236.341 169.188 236.341C170.105 236.347 171.006 236.099 171.79 235.623C175.875 233.148 174.546 226.05 171.31 219.508C173.835 220.467 176.499 221.006 179.198 221.101C180.217 221.117 181.231 220.975 182.207 220.68C183.572 220.302 184.724 219.381 185.393 218.131C186.03 216.851 186.117 215.367 185.632 214.022C185.437 213.446 185.183 212.891 184.874 212.367C187.97 212.75 191.083 212.963 194.202 213.001C197.802 213.287 201.382 212.239 204.259 210.056L209.72 214.605L207.83 220.247C207.36 221.664 208.126 223.195 209.542 223.666C210.959 224.137 212.49 223.37 212.961 221.954L214.173 218.314L216.77 220.475C217.511 221.091 218.527 221.267 219.432 220.933C220.338 220.6 220.997 219.807 221.16 218.857C221.324 217.905 220.968 216.94 220.225 216.322L217.777 214.284L222.051 212.86C223.467 212.389 224.233 210.859 223.762 209.443C223.292 208.027 221.762 207.261 220.345 207.731L212.895 210.216L206.848 205.177C207.153 201.842 206.413 198.495 204.728 195.601C201.836 189.748 197.687 184.604 192.579 180.538C195.469 179.833 198.109 178.343 200.204 176.232C203.275 172.847 204.964 168.433 204.94 163.864C210.191 161.862 213.491 156.633 213.039 151.031C216.954 147.554 218.97 142.414 218.46 137.202C223.833 132.996 224.384 125.323 223.676 120.634C226.175 116.598 227.153 111.804 226.433 107.113C229.228 102.833 230.267 97.6422 229.335 92.617C230.86 91.1228 231.804 89.1355 232 87.0097C232.011 84.0893 230.617 81.3419 228.252 79.6277ZM151.004 210.161C144.186 208.447 138.613 203.553 136.031 197.015C136.519 197.093 137.011 197.142 137.505 197.161C141.768 197.241 145.877 198.764 149.162 201.481C149.291 201.584 149.429 201.675 149.576 201.751C149.706 201.855 149.847 201.945 149.994 202.022C150.639 202.295 151.368 202.295 152.013 202.022C152.162 201.945 152.301 201.855 152.432 201.751C152.578 201.675 152.717 201.584 152.845 201.481C156.118 198.741 160.236 197.215 164.503 197.161C164.997 197.142 165.49 197.093 165.978 197.015C163.395 203.553 157.821 208.447 151.004 210.161ZM169.903 159.003H132.106V148.204H169.903V159.003ZM142.094 136.614C150.121 128.587 145.064 122.116 143.218 120.233C142.968 119.992 142.749 119.72 142.567 119.424C142.554 119.399 142.527 119.389 142.511 119.364C142.393 119.204 142.257 119.057 142.105 118.927C142.004 118.813 141.894 118.707 141.776 118.612C141.642 118.535 141.501 118.471 141.355 118.419C141.183 118.33 141.002 118.258 140.815 118.206C140.785 118.206 140.763 118.179 140.733 118.177C138.75 117.866 136.739 117.769 134.734 117.885C136.259 116.654 138.135 115.937 140.094 115.838C140.241 115.836 140.389 115.82 140.534 115.793C141.506 115.665 142.323 114.999 142.643 114.072C142.853 113.732 143.121 113.432 143.436 113.185C145.001 112.17 146.933 111.896 148.717 112.433C149.228 112.577 149.725 112.762 150.202 112.99C150.558 113.144 150.904 113.317 151.239 113.511C157.046 116.83 159.104 124.094 159.104 129.306C159.104 133.295 163.095 138.839 166.459 142.805H135.922L142.094 136.614ZM105.668 172.482C103.415 169.876 102.26 166.499 102.444 163.06C102.476 162.987 102.528 162.927 102.555 162.851C103.041 161.442 102.292 159.906 100.884 159.42L100.654 159.35C100.55 159.312 100.445 159.282 100.338 159.258C97.3791 158.8 95.0408 156.506 94.5255 153.556H94.607C95.9702 153.556 97.1184 152.54 97.2852 151.186C97.4521 149.833 96.5845 148.569 95.2621 148.236C94.4748 148.045 93.7221 147.727 93.035 147.295C90.5088 145.568 88.9948 142.708 88.9849 139.648C89.0554 139.648 89.1307 139.675 89.2012 139.675C90.5669 139.683 91.7224 138.668 91.893 137.313C92.0635 135.958 91.1959 134.688 89.871 134.357C84.8224 133.069 83.6483 128.385 83.5074 124.883C84.2576 125.228 85.0362 125.506 85.8346 125.717C86.0558 125.773 86.282 125.801 86.5094 125.801C87.8714 125.802 89.0207 124.79 89.1913 123.438C89.3606 122.087 88.498 120.822 87.1793 120.485C82.1924 119.202 80.9824 114.635 80.8069 111.152C81.4632 111.429 82.138 111.657 82.8264 111.834C83.0489 111.892 83.2775 111.921 83.5074 111.921C84.8694 111.923 86.02 110.911 86.1905 109.56C86.3623 108.208 85.4997 106.941 84.1797 106.605C78.9902 105.276 77.889 100.376 77.7975 96.8524C80.142 98.3219 82.6138 99.5801 85.1808 100.611C86.5601 101.178 88.1383 100.519 88.7044 99.1401C89.2716 97.7608 88.6129 96.1826 87.2336 95.6165C76.3305 91.1352 75.4345 87.0122 75.4073 87.006C75.3949 85.8319 75.9523 84.7245 76.904 84.0362C77.7431 83.4182 78.8332 83.2526 79.8195 83.5912C83.9622 84.968 88.0197 86.5908 91.9684 88.4508C93.4601 92.1041 94.6639 95.8687 95.5698 99.7099C96.4979 103.411 97.1159 107.185 97.4175 110.99C97.5781 114.485 97.4311 117.988 96.9775 121.457L96.7958 123.285C95.4722 133.012 98.2628 142.85 104.495 150.435C108.759 155.164 114.367 158.477 120.566 159.927C121.806 160.232 123.05 160.51 124.291 160.792C125.102 160.972 125.911 161.169 126.708 161.358V168.268C122.749 170.61 118.917 173.162 115.228 175.911C111.714 176.07 108.28 174.838 105.668 172.482ZM100.787 205.363C99.5791 203.244 101.327 199.373 102.015 198.193C102.09 198.069 102.155 197.941 102.209 197.806C105.917 188.535 119.759 178.935 126.7 174.588V186.913C126.748 189.598 127.811 192.168 129.674 194.102C130.117 196.577 130.91 198.977 132.029 201.229C130.863 201.696 129.672 202.234 128.457 202.85C126.855 203.68 125.308 204.613 123.827 205.644C118.574 206.876 113.201 207.534 107.806 207.602C104.107 207.602 101.616 206.808 100.787 205.363ZM121.527 215.579C121.954 214.282 124.767 210.85 130.925 207.656C132.243 206.989 133.601 206.405 134.991 205.908C135.921 207.074 136.949 208.158 138.064 209.149C137.626 209.58 137.189 210.01 136.767 210.499C135.687 211.207 134.57 211.858 133.423 212.45C127.272 215.631 122.845 215.971 121.532 215.579H121.527ZM133.093 230.869C132.794 229.519 133.425 225.129 137.002 219.201C137.967 217.584 139.062 216.049 140.277 214.61C140.329 214.565 140.369 214.519 140.418 214.473L140.48 214.419L140.499 214.389C140.523 214.364 140.553 214.341 140.578 214.314C141.181 213.608 141.83 212.943 142.52 212.324C143.365 212.815 144.266 213.278 145.221 213.714C144.753 215.544 144.086 217.317 143.231 219C143.177 219.109 143.132 219.222 143.096 219.338C142.661 220.229 142.176 221.115 141.643 221.984C138.044 227.94 134.429 230.524 133.098 230.869H133.093ZM151.004 234.452C150.046 233.458 148.304 229.373 148.304 222.451C148.304 221.929 148.321 221.405 148.337 220.853C149.151 219.166 149.81 217.41 150.308 215.604C150.528 215.665 150.757 215.696 150.985 215.698H151.023C151.251 215.696 151.478 215.665 151.698 215.604C152.189 217.416 152.849 219.178 153.666 220.869C153.684 221.384 153.704 221.908 153.704 222.451C153.704 229.373 151.963 233.458 151.004 234.452ZM168.909 230.869C167.578 230.524 163.968 227.937 160.351 221.984C159.806 221.096 159.306 220.182 158.855 219.244C158.82 219.151 158.782 219.062 158.739 218.973C157.889 217.302 157.23 215.541 156.777 213.722C157.732 213.284 158.637 212.823 159.476 212.331C160.167 212.952 160.817 213.617 161.42 214.321C161.461 214.367 161.506 214.408 161.55 214.451L161.611 214.516L161.677 214.581C162.91 216.029 164.021 217.579 165 219.21C168.577 225.129 169.21 229.522 168.909 230.869ZM168.586 212.443C167.43 211.846 166.307 211.187 165.222 210.471C164.795 209.986 164.365 209.57 163.936 209.143C165.052 208.154 166.082 207.07 167.011 205.903C168.397 206.398 169.749 206.98 171.061 207.645C177.231 210.845 180.046 214.275 180.473 215.574C179.164 215.971 174.735 215.631 168.586 212.443ZM199.793 197.806C199.848 197.941 199.913 198.069 199.987 198.193C200.56 199.148 202.456 203.173 201.218 205.355C200.409 206.806 197.909 207.602 194.2 207.602C188.803 207.535 183.43 206.88 178.175 205.65C176.691 204.617 175.141 203.681 173.534 202.85C172.328 202.232 171.143 201.696 169.976 201.229C171.097 198.979 171.89 196.579 172.333 194.102C174.197 192.164 175.258 189.591 175.303 186.901V174.577C182.236 178.935 196.092 188.535 199.793 197.806ZM201.683 159.258C201.572 159.284 201.462 159.317 201.354 159.354C201.273 159.377 201.195 159.398 201.138 159.42C199.729 159.906 198.981 161.442 199.467 162.851C199.493 162.927 199.545 162.987 199.577 163.06C199.762 166.499 198.607 169.876 196.354 172.482C193.739 174.828 190.305 176.052 186.797 175.886C183.103 173.137 179.266 170.585 175.303 168.243V161.334C176.112 161.145 176.923 160.948 177.733 160.767C178.975 160.496 180.219 160.208 181.459 159.903C187.658 158.452 193.265 155.14 197.528 150.41C203.762 142.827 206.551 132.988 205.228 123.26L205.047 121.432C204.594 117.963 204.447 114.46 204.607 110.965C204.908 107.16 205.525 103.387 206.454 99.6851C207.361 95.844 208.565 92.0806 210.055 88.4261C214.005 86.571 218.062 84.952 222.205 83.5801C223.191 83.2415 224.28 83.4083 225.121 84.0263C226.024 84.6776 226.572 85.712 226.6 86.8256C226.6 86.8664 225.861 91.0536 214.766 95.6165C213.387 96.1826 212.728 97.7608 213.296 99.1401C213.862 100.519 215.44 101.178 216.819 100.611C219.394 99.5739 221.869 98.3096 224.219 96.8314C224.141 100.341 223.053 105.249 217.82 106.594C216.476 106.911 215.587 108.193 215.762 109.564C215.938 110.934 217.119 111.951 218.501 111.921C218.727 111.921 218.954 111.891 219.174 111.834C219.864 111.655 220.543 111.424 221.2 111.143C221.047 114.621 219.851 119.194 214.821 120.485C213.501 120.822 212.639 122.087 212.809 123.438C212.979 124.79 214.129 125.802 215.491 125.801C215.718 125.801 215.944 125.773 216.165 125.717C216.97 125.504 217.755 125.223 218.511 124.875C218.381 128.372 217.218 133.058 212.122 134.368C210.797 134.699 209.928 135.969 210.098 137.323C210.269 138.679 211.424 139.694 212.79 139.686C212.861 139.686 212.933 139.665 213.004 139.659C212.979 142.751 211.433 145.632 208.87 147.363C208.211 147.768 207.491 148.067 206.738 148.247C205.416 148.579 204.548 149.844 204.715 151.198C204.882 152.55 206.03 153.567 207.393 153.567H207.475C206.955 156.509 204.623 158.797 201.669 159.258H201.683Z" fill="black"/>
</svg>
