<svg width="541" height="300" viewBox="0 0 541 300" fill="none" xmlns="http://www.w3.org/2000/svg">
<path d="M139.548 209.674C133.849 209.674 128.15 209.837 122.451 209.627C115.28 209.371 108.109 208.975 100.962 208.369C85.5698 207.064 70.2708 205.036 55.2755 201.284C45.6524 198.907 36.2861 195.877 27.5739 191.099C24.2805 189.305 23.6966 188 24.1404 184.317C24.6776 179.726 25.0513 175.135 25.5185 170.543C25.9856 165.906 26.4995 161.291 26.9666 156.653C27.3403 152.947 27.6907 149.242 28.0644 145.536C28.3914 142.297 28.6483 139.034 29.1155 135.818C29.6293 132.275 33.203 128.919 36.7533 127.894C39.3693 127.124 41.705 127.963 44.1108 128.5C64.0345 132.974 83.9581 137.472 103.858 141.97C111.636 143.718 119.391 145.536 127.169 147.237C131.303 148.146 135.251 147.354 139.081 145.699C146.369 142.553 152.722 138.008 158.818 133.067C169.492 124.398 178.882 114.493 187.15 103.539C191.635 97.5959 197.474 93.6106 204.598 91.4431C206.957 90.7206 209.199 91.0003 211.512 91.9792C215.506 93.6572 219.757 94.4962 224.008 95.3585C230.595 96.687 237.228 97.5027 243.908 98.0853C248.346 98.4815 252.807 98.6447 257.268 98.901C263.598 99.2506 269.951 99.2506 276.281 99.1341C284.176 98.9942 292.071 98.6213 299.965 97.9455C305.665 97.4561 311.364 96.8967 317.039 96.1276C318.534 95.9179 319.842 96.4306 321.22 96.92C326.125 98.6447 331.077 100.299 336.006 101.954C358.942 109.668 381.879 117.429 404.839 125.097C407.478 125.982 407.619 128.08 408.086 130.154C408.109 130.271 408.109 130.411 408.109 130.527C408.203 132.695 408.203 132.671 410.375 132.508C416.634 131.995 422.894 131.483 429.154 130.993C436.511 130.387 443.869 129.805 451.226 129.199C457.486 128.686 463.746 128.197 470.006 127.684C476.733 127.124 483.459 126.519 490.163 125.959C494.904 125.563 499.646 125.26 504.387 124.887C506.933 124.677 509.456 124.444 512.002 124.188C513.777 124.025 515.459 124.165 516.533 125.819C517.748 127.707 516.65 130.038 514.221 130.527C510.203 131.366 506.139 132.089 502.122 132.834C492.382 134.676 482.642 136.493 472.879 138.311C463.185 140.129 453.469 141.947 443.776 143.765C433.989 145.606 424.202 147.447 414.416 149.265C403.835 151.246 393.254 153.227 382.673 155.208C371.976 157.212 361.278 159.217 350.557 161.221C340.023 163.202 329.489 165.183 318.931 167.141C317.834 167.351 317.063 167.77 316.315 168.609C312.321 173.224 307.346 176.626 302.068 179.609C291.463 185.599 280.112 189.701 268.503 193.197C258.039 196.366 247.412 198.86 236.691 200.958C228.119 202.636 219.5 204.011 210.858 205.176C203.757 206.132 196.633 206.971 189.509 207.623C184.534 208.089 179.512 208.439 174.514 208.788C162.882 209.581 151.25 209.814 139.595 210.024C139.548 209.884 139.548 209.791 139.548 209.674ZM322.972 139.453C323.206 139.43 323.416 139.407 323.65 139.383C323.79 139.383 323.906 139.383 324.047 139.36C324.677 139.36 325.285 139.36 326.149 139.36C325.144 138.941 324.327 138.801 323.509 138.708C317.904 137.589 312.345 136.26 306.809 134.792C306.342 134.676 305.921 134.582 305.431 134.652C300.222 135.421 295.154 136.796 290.155 138.428C285.951 139.803 281.77 141.294 277.472 143.136C278.01 143.136 278.29 143.159 278.57 143.136C282.588 142.809 286.605 142.483 290.622 142.157C293.963 141.877 297.303 141.621 300.643 141.341C305.548 140.945 310.453 140.549 315.358 140.129C317.904 139.919 320.426 139.663 322.972 139.453ZM139.502 203.615C144.85 203.451 150.222 203.591 155.571 203.405C164.821 203.078 174.07 202.542 183.296 201.82C188.972 201.377 194.624 200.841 200.277 200.189C207.938 199.303 215.599 198.231 223.214 196.972C234.098 195.178 244.936 193.034 255.61 190.284C268.597 186.951 281.35 182.942 293.402 177.046C299.755 173.923 305.805 170.334 310.756 165.16C311.878 163.994 312.041 162.946 311.27 161.524C309.916 159.007 306.832 157.842 303.889 158.774C294.71 161.664 285.25 162.829 275.651 163.086C269.181 163.272 262.734 162.922 256.311 162.107C247.715 161.035 239.33 159.193 231.319 155.837C229.8 155.208 228.235 154.602 226.857 153.67C225.363 152.668 224.919 150.966 225.69 149.568C226.46 148.193 228.025 147.68 229.684 148.286C230.197 148.473 230.688 148.729 231.178 148.985C234.846 150.803 238.699 152.108 242.623 153.204C243.161 153.344 243.581 153.344 244.048 153.041C253.017 147.307 262.547 142.623 272.31 138.474C281.537 134.536 290.949 131.133 300.806 129.082C304.053 128.406 307.229 128.266 310.476 129.292C314.237 130.481 318.114 131.226 321.991 132.042C331.217 133.976 340.513 135.468 349.903 136.424C356.163 137.053 362.422 137.566 368.706 137.612C372.606 137.635 376.53 137.682 380.431 137.426C385.009 137.123 389.564 136.657 394.025 135.538C396.407 134.932 398.79 134.186 400.705 132.531C402.013 131.413 401.873 130.784 400.238 130.224C373.12 121.088 346.002 111.952 318.885 102.793C317.974 102.49 317.063 102.397 316.129 102.513C312.718 102.91 309.308 103.399 305.898 103.725C298.167 104.448 290.412 105.03 282.634 105.217C272.731 105.45 262.804 105.473 252.901 105.007C250.261 104.891 247.645 104.704 245.029 104.471C239.447 103.958 233.888 103.399 228.352 102.49C221.672 101.395 215.062 100.066 208.709 97.7357C207.658 97.3395 206.653 97.2696 205.602 97.5959C200.464 99.2739 196.026 102.117 192.756 106.406C183.506 118.571 173.136 129.618 161.13 139.127C154.66 144.254 147.84 148.892 140.085 151.945C135.834 153.623 131.467 154.579 126.889 153.647C124.319 153.134 121.75 152.481 119.181 151.922C98.9067 147.354 78.6327 142.739 58.3353 138.218C52.0522 136.82 45.8392 135.049 39.416 134.233C37.2204 133.953 35.4453 135.095 35.1416 137.309C34.6979 140.502 34.4176 143.695 34.0906 146.888C33.6935 150.687 33.3431 154.462 32.9694 158.261C32.5023 162.899 32.0118 167.514 31.5446 172.152C31.1709 175.904 30.8439 179.656 30.4235 183.385C30.1899 185.366 30.1198 185.366 31.9183 186.298C37.3839 189.188 43.1532 191.332 49.0625 193.104C63.217 197.345 77.7451 199.676 92.4134 201.284C100.986 202.216 109.604 202.799 118.2 203.218C125.37 203.568 132.448 203.684 139.502 203.615ZM454.987 135.235C454.987 135.188 454.964 135.142 454.964 135.072C454.637 135.072 454.286 135.025 453.959 135.072C450.97 135.445 447.98 135.631 444.99 135.841C442.678 136.004 440.365 136.214 438.03 136.377C434.456 136.61 430.882 137.03 427.309 137.332C424.693 137.542 422.077 137.635 419.461 137.869C415.373 138.265 411.286 138.521 407.198 138.894C404.699 139.127 402.13 139.011 399.747 140.152C398.393 140.805 396.898 141.248 395.426 141.621C388.442 143.345 381.295 143.625 374.171 143.951C370.224 144.138 366.276 143.532 362.329 143.695C362.072 143.695 361.839 143.602 361.582 143.578C358.802 143.462 355.999 143.019 353.22 143.229C349.389 143.509 345.559 143.881 341.728 144.208C339.276 144.394 336.823 144.581 334.394 144.79C330.447 145.14 326.476 145.443 322.528 145.769C320.169 145.956 317.81 146.165 315.451 146.329C311.691 146.585 307.954 146.981 304.216 147.284C301.694 147.494 299.148 147.61 296.625 147.82C293.005 148.123 289.385 148.496 285.764 148.799C283.195 149.009 280.626 149.125 278.033 149.335C273.362 149.731 268.69 150.43 264.019 150.5C259.814 150.547 256.825 152.994 253.438 154.719C253.298 154.789 253.158 154.975 253.158 155.092C253.158 155.348 253.414 155.371 253.625 155.395C257.455 156.001 261.333 156.513 265.21 156.606C269.017 156.723 272.801 157.096 276.632 156.746C279.995 156.443 283.382 156.35 286.745 155.931C291.37 155.371 295.925 154.556 300.386 153.181C302.978 152.388 305.571 151.619 308.351 152.318C312.602 153.367 315.872 155.604 317.413 159.846C317.764 160.778 318.324 160.848 319.072 160.708C325.495 159.52 331.941 158.308 338.365 157.119C345.138 155.861 351.888 154.602 358.662 153.32C367.304 151.712 375.923 150.081 384.565 148.473C391.782 147.121 399 145.769 406.217 144.417C413.435 143.066 420.652 141.714 427.869 140.339C436.932 138.661 445.948 136.936 454.987 135.235Z" fill="white"/>
<path d="M139.501 203.614C132.447 203.684 125.37 203.591 118.316 203.241C109.697 202.822 101.102 202.239 92.5297 201.307C77.8614 199.699 63.3333 197.391 49.1788 193.126C43.2695 191.355 37.5002 189.211 32.0346 186.321C30.2595 185.366 30.3296 185.389 30.5398 183.408C30.9602 179.656 31.2872 175.903 31.6609 172.174C32.1281 167.537 32.6186 162.922 33.0857 158.284C33.4594 154.485 33.8331 150.71 34.2069 146.911C34.5339 143.718 34.8142 140.502 35.2579 137.332C35.5616 135.118 37.3601 133.976 39.5323 134.256C45.9555 135.071 52.1685 136.843 58.4516 138.241C78.749 142.739 99.023 147.354 119.297 151.945C121.866 152.528 124.412 153.157 127.005 153.67C131.583 154.602 135.974 153.646 140.202 151.968C147.956 148.915 154.753 144.277 161.247 139.15C173.252 129.595 183.623 118.548 192.872 106.382C196.142 102.094 200.58 99.2503 205.719 97.5722C206.77 97.2226 207.774 97.3159 208.825 97.7121C215.178 100.066 221.788 101.371 228.469 102.466C234.004 103.375 239.563 103.935 245.146 104.447C247.762 104.681 250.401 104.867 253.017 104.984C262.92 105.45 272.847 105.45 282.751 105.193C290.529 105.007 298.283 104.424 306.014 103.702C309.424 103.375 312.835 102.909 316.245 102.49C317.179 102.373 318.09 102.466 319.001 102.769C346.119 111.929 373.236 121.065 400.354 130.201C401.966 130.737 402.129 131.366 400.821 132.508C398.906 134.163 396.523 134.908 394.141 135.514C389.68 136.633 385.125 137.099 380.547 137.402C376.623 137.658 372.722 137.612 368.822 137.588C362.539 137.542 356.279 137.029 350.019 136.4C340.63 135.444 331.334 133.953 322.107 132.018C318.254 131.203 314.353 130.457 310.592 129.268C307.346 128.243 304.169 128.383 300.922 129.059C291.066 131.109 281.653 134.512 272.427 138.451C262.64 142.623 253.134 147.284 244.165 153.017C243.697 153.32 243.277 153.343 242.74 153.18C238.792 152.085 234.938 150.803 231.295 148.962C230.804 148.705 230.314 148.449 229.8 148.263C228.165 147.633 226.577 148.169 225.806 149.544C225.012 150.966 225.479 152.644 226.974 153.646C228.352 154.578 229.917 155.184 231.435 155.814C239.446 159.17 247.832 161.011 256.427 162.083C262.85 162.875 269.297 163.225 275.767 163.062C285.343 162.805 294.803 161.64 304.006 158.75C306.949 157.818 310.032 158.983 311.387 161.5C312.157 162.922 311.994 163.971 310.873 165.136C305.921 170.31 299.871 173.922 293.518 177.022C281.443 182.918 268.69 186.927 255.726 190.26C245.029 193.01 234.214 195.154 223.33 196.949C215.716 198.207 208.054 199.256 200.393 200.165C194.741 200.817 189.088 201.353 183.413 201.796C174.186 202.519 164.937 203.055 155.688 203.381C150.222 203.591 144.873 203.451 139.501 203.614Z" fill="#696969"/>
<path d="M454.987 135.235C445.947 136.959 436.908 138.661 427.892 140.385C420.675 141.76 413.458 143.089 406.24 144.464C399.023 145.816 391.806 147.167 384.588 148.519C375.969 150.127 367.327 151.759 358.685 153.367C351.911 154.625 345.161 155.907 338.388 157.166C331.964 158.377 325.518 159.566 319.095 160.755C318.347 160.894 317.787 160.825 317.436 159.892C315.871 155.651 312.601 153.437 308.374 152.365C305.594 151.665 303.002 152.434 300.409 153.227C295.948 154.579 291.393 155.418 286.768 155.977C283.405 156.373 280.018 156.466 276.655 156.793C272.824 157.142 269.017 156.769 265.233 156.653C261.356 156.536 257.502 156.024 253.648 155.441C253.438 155.418 253.181 155.394 253.181 155.138C253.181 154.998 253.344 154.812 253.461 154.765C256.848 153.04 259.837 150.593 264.042 150.547C268.713 150.477 273.385 149.778 278.056 149.381C280.625 149.172 283.195 149.055 285.787 148.845C289.408 148.542 293.028 148.169 296.648 147.866C299.171 147.657 301.717 147.54 304.239 147.33C307.977 147.027 311.714 146.608 315.474 146.375C317.833 146.212 320.192 146.025 322.551 145.816C326.499 145.489 330.47 145.186 334.417 144.837C336.846 144.627 339.299 144.464 341.751 144.254C345.582 143.951 349.412 143.578 353.243 143.275C356.046 143.065 358.825 143.508 361.605 143.625C361.862 143.625 362.119 143.741 362.352 143.741C366.299 143.578 370.247 144.184 374.194 143.998C381.342 143.671 388.489 143.392 395.449 141.667C396.921 141.294 398.416 140.875 399.77 140.199C402.153 139.057 404.722 139.173 407.221 138.94C411.309 138.567 415.396 138.288 419.484 137.915C422.1 137.658 424.716 137.589 427.332 137.379C430.905 137.076 434.479 136.656 438.053 136.423C440.365 136.26 442.677 136.05 445.013 135.887C448.003 135.677 450.993 135.491 453.982 135.118C454.309 135.072 454.66 135.118 454.987 135.118C454.963 135.118 454.987 135.188 454.987 135.235Z" fill="black"/>
</svg>
