<svg width="299" height="300" viewBox="0 0 299 300" fill="none" xmlns="http://www.w3.org/2000/svg">
<path d="M152.883 239.975C144.864 240.164 137.855 239.313 130.914 236.857C130.847 236.857 130.847 236.857 130.779 236.857C128.556 236.101 127.882 234.779 128.016 231.661C128.084 230.622 128.623 231.094 128.893 231.189C131.251 231.85 133.61 232.417 135.968 232.889C138.664 233.456 141.36 233.834 144.055 234.118C148.84 234.59 153.624 234.684 158.476 234.118C163.396 233.551 168.248 232.7 173.033 231.283C173.841 231 174.178 231.094 173.909 232.417C173.774 232.984 173.639 233.645 173.706 234.212C174.043 236.574 172.965 237.046 171.617 237.424C167.844 238.463 164.002 239.219 160.161 239.691C157.533 239.975 154.77 239.88 152.883 239.975Z" fill="#616161"/>
<ellipse cx="151.5" cy="129.5" rx="88.5" ry="89.5" fill="#A3A3A3"/>
<path d="M147.586 30C143.322 30 139.121 30.2832 135 30.831C182.791 37.1871 219.828 79.2367 219.828 130C219.828 180.763 182.791 222.812 135 229.169C139.121 229.717 143.322 230 147.586 230C201.3 230 245 185.14 245 130C245 74.86 201.3 30 147.586 30Z" fill="#D9D9D9"/>
<path d="M149.405 24C166.925 24 182.1 27.3747 196.429 34.189C216.815 43.9238 232.577 58.6557 243.649 78.3848C249.511 88.7685 253.353 99.931 255.438 111.678C256.48 117.778 257.066 123.878 257.001 130.044C256.87 143.413 254.395 156.328 249.38 168.723C240.653 190.204 226.389 207.078 206.655 219.409C204.31 220.836 201.9 222.134 199.49 223.432C198.969 223.692 198.579 223.952 198.839 224.665C199.034 225.185 198.709 225.769 198.579 226.288C198.448 226.872 198.253 227.456 198.188 228.04C198.057 229.663 198.383 229.922 199.946 229.533C203.398 228.689 206.59 229.143 208.999 231.934C211.605 234.984 212.516 238.489 210.758 242.318C210.628 242.577 210.563 242.837 210.432 243.097C209.455 244.459 208.869 245.693 210.497 247.185C211.605 248.224 211.214 249.911 210.823 251.339C210.693 251.923 210.758 252.312 211.279 252.766C212.256 253.545 212.582 254.713 212.582 255.946C212.582 258.283 212.516 260.554 213.038 262.891C213.493 264.773 214.275 266.265 216.164 267.109C218.443 268.147 219.225 269.705 218.964 271.782C218.704 273.599 216.88 275.286 214.796 275.805C212.907 276.26 211.214 275.87 209.52 275.027C206.98 273.729 205.026 271.717 203.333 269.51C200.598 265.876 198.318 261.982 197.276 257.504C197.146 256.985 196.95 256.66 196.429 256.466C194.671 255.687 193.563 254.324 192.977 252.507C192.847 252.117 192.847 251.663 192.131 251.923C190.112 252.702 188.483 251.858 187.05 250.43C186.79 250.17 186.594 249.781 186.008 249.976C181.97 251.468 178.974 249.651 176.434 246.796C175.457 245.693 174.676 244.459 174.155 243.097C173.894 242.318 173.503 242.253 172.722 242.448C164.19 244.395 155.527 244.914 146.8 244.524C140.743 244.265 134.816 243.616 128.954 241.928C128.042 241.669 128.042 242.318 127.847 242.772C126.544 245.693 124.786 248.224 121.79 249.716C119.901 250.625 118.012 250.884 116.123 250.106C115.537 249.846 115.211 249.976 114.821 250.43C113.388 251.923 111.759 252.766 109.61 251.923C109.089 251.728 109.024 251.988 108.894 252.377C108.308 254.324 107.135 255.817 105.246 256.595C104.595 256.855 104.66 257.439 104.465 257.958C102.641 264.189 99.4498 269.51 94.4347 273.729C92.9367 274.962 91.3085 275.805 89.3546 276.065C86.098 276.584 82.8415 273.988 82.8415 270.938C82.8415 269.38 83.5579 268.147 84.9257 267.628C88.7033 266.071 89.094 262.826 89.2894 259.516C89.3546 258.348 89.2894 257.18 89.2894 256.011C89.2894 254.713 89.6802 253.61 90.7223 252.766C91.1131 252.442 91.1782 252.117 91.048 251.663C90.8526 250.495 90.4618 249.262 90.9177 248.094C91.1131 247.575 91.3085 246.99 91.7644 246.666C93.0019 245.887 92.546 245.173 91.9598 244.2C90.1361 241.215 89.4848 238.035 91.1782 234.725C93.4578 230.182 97.3005 228.43 102.185 229.792C103.423 230.117 103.618 230.052 103.683 228.754C103.748 228.105 103.553 227.456 103.423 226.807C103.292 226.353 102.967 225.834 103.097 225.444C103.618 223.887 102.511 223.627 101.469 223.043C84.2092 213.827 70.4667 200.913 60.3715 184.234C53.0768 172.163 48.4526 159.378 46.3033 145.619C45.1309 138.286 44.675 130.887 45.2612 123.554C48.3223 85.5885 66.2983 56.7087 99.3195 37.434C110.327 31.009 122.311 27.1151 134.881 25.2331C140.287 24.3894 145.627 23.9351 149.405 24ZM150.903 229.533C206.59 229.663 251.204 184.623 251.334 129.979C251.53 74.3611 206.524 29.776 151.489 29.5813C95.3466 29.3866 50.7321 74.426 50.667 129.395C50.6019 184.948 95.8676 229.663 150.903 229.533ZM152.596 238.943C154.42 238.878 157.09 238.943 159.761 238.748C163.473 238.424 167.186 237.905 170.833 237.191C172.07 236.931 173.112 236.607 172.852 234.984C172.787 234.595 172.917 234.141 173.047 233.751C173.308 232.843 172.982 232.778 172.201 232.972C167.576 233.946 162.822 234.53 158.132 234.919C153.508 235.309 148.819 235.244 144.195 234.919C141.589 234.725 138.984 234.465 136.379 234.076C134.099 233.751 131.82 233.362 129.54 232.908C129.214 232.843 128.693 232.518 128.693 233.232C128.563 235.439 129.214 236.282 131.364 236.801C131.429 236.801 131.429 236.801 131.494 236.801C138.072 238.554 144.911 239.073 152.596 238.943Z" fill="white"/>
<path d="M150.902 229.533C95.867 229.663 50.6012 184.948 50.6663 129.395C50.7315 74.426 95.3459 29.3866 151.488 29.5813C206.589 29.776 251.529 74.3611 251.399 129.979C251.203 184.623 206.589 229.598 150.902 229.533ZM151.619 222.719C203.398 222.784 245.016 181.249 245.472 130.303C245.928 77.9954 203.853 35.9413 151.814 35.9413C99.905 35.8765 58.0261 77.5411 58.0261 129.33C57.961 180.989 99.905 222.654 151.619 222.719Z" fill="#616161"/>
<path d="M151.619 222.719C99.9049 222.654 57.9608 180.989 58.026 129.33C58.026 77.5412 99.9049 35.8765 151.814 35.9414C203.853 36.0063 245.928 77.9954 245.472 130.303C244.951 181.249 203.397 222.784 151.619 222.719ZM151.814 41.5226C103.682 41.3928 63.6272 80.0073 63.5621 129.265C63.5621 153.342 72.1593 174.304 89.2886 191.308C108.176 210.128 131.233 218.565 157.871 216.943C201.769 214.282 239.74 177.939 239.87 129.525C240.001 79.7477 199.49 41.3928 151.814 41.5226Z" fill="white"/>
<path d="M81.3428 167.49C81.2777 158.469 89.0282 151.46 97.4952 151.59C106.158 151.785 113.322 158.794 113.322 167.49C113.322 176.187 106.027 183.585 97.2998 183.455C87.5302 183.325 81.2125 175.538 81.3428 167.49Z" fill="#69696D"/>
<path d="M155.657 114.338C164.254 114.338 170.962 121.153 170.897 129.784C170.897 138.026 163.928 144.906 155.722 144.841C147.06 144.776 140.286 137.961 140.351 129.395C140.351 121.088 147.255 114.274 155.657 114.338Z" fill="#69696D"/>
<path d="M231.013 115.507C231.013 122.71 225.086 128.616 217.856 128.616C210.757 128.616 204.765 122.71 204.7 115.572C204.635 108.498 210.692 102.397 217.856 102.462C225.086 102.397 231.013 108.368 231.013 115.507Z" fill="#69696D"/>
<path d="M157.09 200.653C157.09 193.449 162.951 187.544 170.116 187.544C177.215 187.544 183.272 193.449 183.207 200.523C183.142 207.987 177.541 213.503 170.051 213.633C162.951 213.828 157.09 207.792 157.09 200.653Z" fill="#69696D"/>
<path d="M195.126 150.487C195.126 157.431 189.395 163.077 182.491 163.077C175.522 163.077 169.855 157.301 169.92 150.292C169.986 143.802 175.001 137.897 182.686 137.767C189.46 137.637 195.126 143.543 195.126 150.487Z" fill="#363535"/>
<path d="M195.061 111.094C195.126 117.389 189.981 123.684 182.491 123.554C174.805 123.424 169.92 117.454 169.92 110.899C169.92 104.085 175.717 98.3735 182.491 98.3735C189.46 98.4384 195.061 104.085 195.061 111.094Z" fill="#363535"/>
<path d="M118.467 100.775C118.402 94.869 123.026 89.6122 129.8 89.6771C135.792 89.742 140.742 94.4147 140.807 100.905C140.872 107.005 135.662 112.002 129.605 111.937C123.352 111.937 118.467 107.005 118.467 100.775Z" fill="#69696D"/>
<path d="M129.605 149.513C135.727 149.513 140.872 154.381 140.742 160.546C140.612 167.101 135.662 171.644 129.735 171.644C122.766 171.644 118.467 166.192 118.467 160.546C118.532 154.381 123.417 149.513 129.605 149.513Z" fill="#363535"/>
<path d="M211.409 82.733C216.619 82.733 220.787 86.8216 220.852 91.8837C220.852 96.8809 216.554 101.229 211.539 101.229C206.459 101.229 202.29 97.0107 202.29 91.8837C202.29 86.8216 206.394 82.7979 211.409 82.733Z" fill="#363535"/>
<path d="M211.343 178.588C206.328 178.588 202.29 174.434 202.355 169.307C202.355 164.31 206.589 160.157 211.539 160.157C216.489 160.157 220.787 164.44 220.787 169.437C220.722 174.564 216.554 178.653 211.343 178.588Z" fill="#363535"/>
<path d="M219.354 138.546C219.354 133.484 223.458 129.33 228.473 129.395C233.488 129.395 237.656 133.548 237.656 138.546C237.656 143.413 233.423 147.696 228.733 147.696C223.458 147.696 219.354 143.673 219.354 138.546Z" fill="white"/>
<path d="M216.749 146.268C216.684 151.266 212.386 155.484 207.436 155.419C202.421 155.354 198.187 151.071 198.317 146.139C198.448 141.141 202.616 137.053 207.501 137.053C212.581 137.118 216.815 141.336 216.749 146.268Z" fill="#363535"/>
<path d="M122.114 146.593C117.165 146.593 113.126 142.634 113.126 137.702C113.126 132.834 117.23 128.811 122.114 128.811C126.999 128.811 131.037 132.899 131.103 137.897C131.103 142.634 127.064 146.593 122.114 146.593Z" fill="#363535"/>
<path d="M188.092 193.969C188.092 189.62 191.479 186.246 195.777 186.246C200.076 186.246 203.528 189.62 203.528 193.904C203.528 198.122 200.011 201.627 195.777 201.627C191.609 201.692 188.092 198.187 188.092 193.969Z" fill="#363535"/>
<path d="M118.532 181.768C118.532 177.614 121.724 174.499 125.892 174.499C129.995 174.499 133.317 177.809 133.317 181.898C133.317 185.856 129.93 189.166 125.892 189.166C121.724 189.166 118.532 185.921 118.532 181.768Z" fill="white"/>
<path d="M163.798 166.711C163.798 170.605 160.607 173.85 156.829 173.915C152.921 173.915 149.534 170.605 149.6 166.711C149.6 162.817 152.856 159.573 156.764 159.573C160.672 159.573 163.798 162.753 163.798 166.711Z" fill="#363535"/>
<path d="M178.713 82.6681C178.713 86.3673 175.587 89.4175 171.939 89.4175C168.292 89.4175 165.296 86.3673 165.296 82.6681C165.296 78.9689 168.292 75.9187 171.939 75.9187C175.652 75.9187 178.713 79.0338 178.713 82.6681Z" fill="white"/>
<path d="M165.361 178.653C165.361 175.018 168.357 172.033 171.94 172.033C175.587 172.033 178.648 175.083 178.648 178.718C178.648 182.287 175.522 185.402 171.94 185.402C168.357 185.402 165.361 182.352 165.361 178.653Z" fill="white"/>
<path d="M152.205 54.3725C152.205 57.9419 149.404 60.6676 145.822 60.6676C142.305 60.6676 139.504 57.8121 139.569 54.3725C139.569 50.8679 142.5 48.0773 146.148 48.1422C149.534 48.1422 152.27 50.9977 152.205 54.3725Z" fill="#69696D"/>
<path d="M152.205 207.013C152.205 210.388 149.404 213.178 146.083 213.178C142.566 213.178 139.635 210.323 139.635 206.883C139.635 203.509 142.501 200.718 145.952 200.718C149.404 200.718 152.205 203.509 152.205 207.013Z" fill="#363535"/>
<path d="M147.646 188.063C144.519 188.063 141.979 185.467 141.979 182.222C141.979 179.042 144.519 176.446 147.711 176.446C150.902 176.446 153.572 179.042 153.638 182.287C153.638 185.532 151.032 188.063 147.646 188.063Z" fill="white"/>
<path d="M194.019 127.967C194.019 125.047 196.363 122.645 199.229 122.71C202.03 122.71 204.505 125.177 204.505 127.967C204.505 130.693 202.03 133.224 199.359 133.224C196.428 133.289 194.019 130.888 194.019 127.967Z" fill="#363535"/>
<path d="M201.704 180.729C201.704 182.547 200.076 184.169 198.252 184.169C196.363 184.169 194.735 182.611 194.735 180.794C194.735 178.912 196.363 177.355 198.317 177.355C200.206 177.355 201.704 178.847 201.704 180.729Z" fill="#BCBCBC"/>
<path d="M154.029 156.263C152.726 156.263 151.554 155.224 151.554 153.926C151.488 152.693 152.661 151.525 153.898 151.46C155.201 151.395 156.308 152.499 156.373 153.797C156.373 155.095 155.331 156.198 154.029 156.263Z" fill="#69696D"/>
<path d="M127.325 206.299C127.325 207.532 126.153 208.701 124.85 208.701C123.547 208.701 122.44 207.532 122.44 206.234C122.44 204.937 123.613 203.833 124.85 203.833C126.153 203.898 127.325 205.066 127.325 206.299Z" fill="#363535"/>
<path d="M105.246 190.918C105.311 192.151 104.139 193.385 102.901 193.385C101.664 193.449 100.426 192.281 100.426 191.048C100.361 189.75 101.468 188.647 102.771 188.582C104.073 188.582 105.246 189.62 105.246 190.918Z" fill="#363535"/>
<path d="M183.011 128.421C184.314 128.357 185.486 129.46 185.486 130.758C185.552 131.991 184.379 133.224 183.142 133.224C181.904 133.289 180.667 132.121 180.667 130.888C180.602 129.654 181.709 128.486 183.011 128.421Z" fill="white"/>
<path d="M183.337 183.844C183.337 182.547 184.444 181.443 185.747 181.443C187.05 181.443 188.157 182.611 188.157 183.844C188.157 185.142 187.05 186.246 185.747 186.246C184.379 186.246 183.337 185.142 183.337 183.844Z" fill="white"/>
<path d="M226.323 166.906C225.021 166.906 223.914 165.738 223.914 164.505C223.914 163.272 225.151 162.104 226.389 162.104C227.691 162.104 228.798 163.272 228.798 164.57C228.733 165.803 227.626 166.906 226.323 166.906Z" fill="white"/>
<path d="M171.484 163.272C172.721 163.272 173.893 164.44 173.893 165.673C173.893 166.906 172.721 168.074 171.484 168.074C170.181 168.074 169.074 166.971 169.074 165.673C169.074 164.44 170.246 163.272 171.484 163.272Z" fill="white"/>
<path d="M143.998 82.4085C145.236 82.4085 146.408 83.5766 146.408 84.8746C146.408 86.1726 145.236 87.2758 143.998 87.2758C142.696 87.2758 141.589 86.1077 141.589 84.8746C141.589 83.5117 142.761 82.3436 143.998 82.4085Z" fill="#363535"/>
<path d="M230.492 97.9841C230.492 99.2821 229.319 100.385 228.082 100.385C226.779 100.385 225.672 99.2821 225.672 97.9841C225.672 96.6862 226.844 95.5829 228.082 95.5829C229.319 95.5829 230.492 96.7511 230.492 97.9841Z" fill="#363535"/>
<path d="M166.859 150.292C166.794 151.59 165.687 152.693 164.384 152.628C163.082 152.563 162.04 151.46 162.04 150.162C162.04 148.799 163.147 147.826 164.515 147.826C165.817 147.826 166.859 148.994 166.859 150.292Z" fill="white"/>
<path d="M142.305 168.593C143.608 168.593 144.715 169.632 144.715 170.93C144.715 172.228 143.608 173.331 142.305 173.331C141.002 173.331 139.895 172.228 139.895 170.93C139.895 169.697 141.002 168.593 142.305 168.593Z" fill="#69696D"/>
<path d="M235.116 154.251C235.116 155.549 233.944 156.652 232.706 156.587C231.404 156.587 230.296 155.419 230.362 154.121C230.362 152.823 231.534 151.72 232.837 151.785C234.074 151.85 235.116 152.953 235.116 154.251Z" fill="white"/>
<path d="M225.868 154.186C225.868 155.484 224.76 156.587 223.458 156.587C222.155 156.587 221.048 155.484 221.048 154.186C221.048 152.888 222.155 151.785 223.458 151.785C224.76 151.785 225.868 152.888 225.868 154.186Z" fill="white"/>
<path d="M197.992 163.337C196.624 163.337 195.647 162.233 195.647 160.871C195.647 159.573 196.754 158.469 198.057 158.534C199.359 158.599 200.402 159.702 200.402 161C200.402 162.363 199.359 163.402 197.992 163.337Z" fill="white"/>
<path d="M159.63 109.017C158.327 109.017 157.22 107.978 157.22 106.68C157.22 105.382 158.327 104.279 159.63 104.279C160.932 104.279 162.04 105.318 162.04 106.616C162.04 107.913 160.932 109.017 159.63 109.017Z" fill="#363535"/>
<path d="M153.312 93.7008C153.312 92.4028 154.419 91.2996 155.722 91.2996C157.024 91.2996 158.067 92.4677 158.067 93.7657C158.067 95.0637 156.959 96.1669 155.657 96.102C154.354 96.1669 153.312 95.0637 153.312 93.7008Z" fill="#363535"/>
<path d="M149.079 73.5824C147.841 73.6473 146.669 72.4791 146.604 71.2461C146.539 70.013 147.711 68.7799 148.948 68.7799C150.186 68.715 151.423 69.8832 151.423 71.1163C151.488 72.3493 150.316 73.5175 149.079 73.5824Z" fill="#69696D"/>
<path d="M134.555 124.138C134.555 125.436 133.512 126.539 132.145 126.539C130.842 126.539 129.735 125.436 129.735 124.138C129.735 122.905 130.842 121.737 132.145 121.737C133.382 121.737 134.555 122.84 134.555 124.138Z" fill="#69696D"/>
<path d="M151.293 191.243C152.661 191.243 153.703 192.281 153.703 193.579C153.703 194.877 152.661 195.98 151.293 195.98C149.991 195.98 148.883 194.877 148.883 193.644C148.883 192.346 149.991 191.308 151.293 191.243Z" fill="white"/>
<path d="M234.269 123.619C234.269 122.256 235.246 121.218 236.614 121.218C237.982 121.218 239.024 122.256 239.024 123.554C239.024 124.852 237.982 125.955 236.679 125.955C235.311 126.02 234.269 124.982 234.269 123.619Z" fill="white"/>
<path d="M191.414 92.7273C190.046 92.7273 189.069 91.6889 189.069 90.3261C189.069 88.9632 190.111 87.9897 191.479 87.9897C192.846 87.9897 193.889 89.093 193.823 90.391C193.823 91.7538 192.781 92.7922 191.414 92.7273Z" fill="white"/>
<path d="M187.375 172.942C187.375 171.579 188.352 170.54 189.72 170.54C191.088 170.54 192.13 171.579 192.13 172.877C192.13 174.175 191.088 175.278 189.785 175.278C188.482 175.278 187.44 174.24 187.375 172.942Z" fill="white"/>
<path d="M141.002 148.215C139.635 148.215 138.593 147.242 138.593 145.879C138.593 144.581 139.635 143.478 140.937 143.478C142.24 143.478 143.347 144.581 143.412 145.879C143.412 147.112 142.37 148.215 141.002 148.215Z" fill="white"/>
<path d="M132.275 192.216C133.577 192.216 134.685 193.32 134.619 194.618C134.619 195.916 133.512 197.019 132.145 196.954C130.777 196.954 129.8 195.851 129.8 194.553C129.865 193.19 130.907 192.216 132.275 192.216Z" fill="#363535"/>
<path d="M200.402 105.512C199.034 105.512 198.057 104.474 198.057 103.111C198.057 101.748 199.164 100.71 200.467 100.775C201.769 100.775 202.877 101.878 202.811 103.176C202.811 104.474 201.769 105.512 200.402 105.512Z" fill="white"/>
</svg>
